<svg id="Layer" xmlns="http://www.w3.org/2000/svg" viewBox="0 0 64.07 41.48"><defs><style>.cls-1{fill-rule:evenodd;}</style></defs><title>facebook-icon</title><path class="cls-1" d="M60.23,10.37a5,5,0,0,0-5-5h-20a5,5,0,0,0-5,5v20a5,5,0,0,0,5,5h10v-10h-3v-5h3v-4a4,4,0,0,1,4-4h.38c4.65,0,4.57,0,4.57,0v5h-3a1,1,0,0,0-1,1v2h3v5h-3v10h5a5,5,0,0,0,5-5Zm-8,14v-3h-3v-3a1.94,1.94,0,0,1,1.91-2h2.1v-3h-4a3.07,3.07,0,0,0-3,3v5h-3v3h3l-.06,11h3.06v-11Zm3,12h-20a6,6,0,0,1-6-6v-20a6,6,0,0,1,6-6h20a6,6,0,0,1,6,6v20A6,6,0,0,1,55.23,36.37Z"/></svg>