<?xml version="1.0" encoding="utf-8"?>
<!-- Generator: Adobe Illustrator 21.0.2, SVG Export Plug-In . SVG Version: 6.00 Build 0)  -->
<svg version="1.1" id="Layer_1" xmlns="http://www.w3.org/2000/svg" xmlns:xlink="http://www.w3.org/1999/xlink" x="0px" y="0px"
	 viewBox="0 0 1280 1024" style="enable-background:new 0 0 1280 1024;" xml:space="preserve">
<style type="text/css">
	.st0{fill:#2C2C2C;}
</style>
<path class="st0" d="M707.7,14c-3,0.3-6,0.8-9.1,1.5c-4.3,0.9-8.8,2.4-14.1,4.5c-5.9,2.4-10.6,4.6-14.7,7.1c-0.8,0.5-1.7,1-2.5,1.5
	c-2.1,1.2-4.3,2.5-6.4,3.9c-4.4,2.8-8.1,5.2-11.4,7.6c-1.6,1.1-3.3,2.3-5.2,3.7c-2.3-1.6-4.4-3.1-6.5-4.5
	c-8.8-5.8-18.4-10.1-28.5-12.9c-6.2-1.7-12.3-2.7-19.2-3.7c-3.4-0.5-7-1-11.7-1.6l-0.2,0c-6.6-0.9-13.4-1.7-20.1-2.2
	c-1.1-0.1-2.3-0.2-3.4-0.3c-2.4-0.2-4.9-0.4-7.4-0.5l-5.9-0.2l-5.8-0.2c-0.2,0-0.5,0-0.7,0c-0.7,0-1.4,0-2.2,0.1c-0.5,0-1,0-1.5,0
	l-3.9,0.1l-3.8,0.1c-2.5,0.1-4.9,0.2-7.3,0.4c-0.8,0.1-1.5,0.1-2.3,0.2c-3,0.2-6.2,0.4-9.4,0.7c-1,0.1-2,0.2-2.9,0.3
	c-3,0.3-6.2,0.6-9.2,1.1l-3.4,0.6l-3.4,0.6l-0.9,0.1c-0.9,0.1-1.9,0.3-2.9,0.5c-2.2,0.5-4.4,1.1-6.7,1.6l-0.9,0.2
	c-0.9,0.2-1.9,0.4-2.9,0.7c-1.1,0.3-2.2,0.7-3.2,1c-2.3,0.7-4.7,1.4-6.9,2.2c-1,0.4-2,0.7-3,1.1c-3,1.1-6.1,2.2-9,3.4
	c-3.3,1.4-6.9,2.9-10.3,4.8c-3.4,1.9-6.8,4.1-10.1,6.7c-3.2,2.6-6.1,5.4-8.6,8.4c-2.5,3-5,6.4-7.5,10.2c-1.4,2.2-2.8,4.3-4.1,6.5
	c-0.8,1.3-1.7,2.6-2.5,3.9c-2.6,4.1-5.1,7.6-7.5,10.9c-3.9,4.9-8.3,9.8-13.3,14.5c-3,2.9-6.2,5.6-9.4,8.3l-1.1,1
	c-1.4,1.2-2.8,2.4-4.3,3.5l-3.6,2.8l-2.3,1.8c-4,2.8-7.3,5-10.5,6.9c-3.7,2.2-7.8,4.2-12.5,6.3c-5.8,2.4-11.8,4.6-17.6,6.7
	c-2.2,0.8-4.5,1.6-6.7,2.4c-4.7,1.7-9.4,3.6-14,5.3c-1.8,0.7-3.6,1.4-5.5,2.1c-0.8,0.3-1.7,0.6-2.5,0.9c-2,0.7-4,1.5-6,2.4l-2.1,0.9
	l-3.8,1.6c-2.1,0.9-4.1,1.9-6,2.8c-4.6,2.3-9.2,5-13.5,7.5c-1.3,0.8-2.7,1.6-4,2.4c-2.4,1.4-4.9,2.8-7.3,4.2
	c-5.5,3.1-11.1,6.3-16.5,9.7c-4.4,2.7-8.6,5.9-12.1,8.7c-4.2,3.3-7.9,7.1-11.3,10.8c-4,4.3-7.7,9-11.3,13.5l-1.1,1.4l-1.7,2.1
	c-4.9,6.1-9.9,12.4-14.5,18.9c-5.7,8-10.3,16.9-14.1,27.2c-1.7,4.6-3.2,9.4-4.6,14l-0.1,0.3c-1.6,5.2-3,10.5-4.3,15.9
	c-1.1,5-2.1,10.2-2.7,15.6c-0.6,4.7-0.7,9.9-0.5,15.9c0.2,5.3,1,10.7,1.7,15.3c0.5,3.1,1.1,6.3,1.8,9.5l0.1,0.3
	c1.5,6.7,3,13.6,5.2,20.3l0.1,0.3c1.1,3.4,2.2,6.9,3.5,10.3c1.1,2.8,2.1,5.7,3.2,8.5l0.9,2.4c0.9,2.5,1.8,5,2.6,7.5
	c0.3,0.8,0.6,1.7,0.8,2.5c0.3,0.9,0.6,1.8,0.8,2.8c0.1,0.4,0.2,0.9,0.4,1.3c0.2,0.6,0.3,1.1,0.5,1.7c0.3,1.1,0.7,2.3,0.9,3.4l1.1,5
	c0.1,0.5,0.2,1,0.3,1.5c0.2,1,0.5,2,0.7,3l0.8,4.7l1,5.6c0.4,3,0.8,6,1.2,9c0.3,2.3,0.5,4.6,0.7,6.9c0.1,1.1,0.2,2.2,0.3,3.3
	c0.2,2.4,0.5,4.7,0.7,7.1c0.5,5,0.9,10.1,1.7,15.2c1.2,8.2,3.6,16.2,5.9,23.9c0.7,2.3,1.4,4.6,2,6.9c0.7,2.6,1.3,5.3,1.9,7.9
	l0.5,2.1c0.5,2.3,0.8,4.6,1.1,6.9l0.1,0.9c0.6,6.4,1.2,13.1,1.4,19.8c0.1,3.6,0.2,7.5,0.2,11.4c0,3.8-0.2,7.5-0.4,11.1
	c-0.1,2.1-0.3,4.1-0.5,6.2c-0.1,1.1-0.2,2.1-0.3,3.2c-0.4,4.7-0.7,8.3-0.8,11.7c-0.2,2.8-0.2,5-0.2,7.1c0,5.2,0.5,10.7,1.6,16.5
	c0.8,4.3,2.3,8.8,4.9,14.2c2.4,5,5.9,9.5,9,13.3c2.6,3.1,5.7,6.2,9.5,9.5c1.8,1.6,3.7,3,5.6,4.5l1.6,1.2c2.5,2,5.2,4.1,8.1,6.5
	c1.3,1.1,2.7,2.2,4,3.3c2.9,2.3,5.7,4.3,8.6,5.9l1.6,0.9c2.5,1.4,5,2.8,7.6,3.9c1,0.5,2.1,0.9,3.1,1.3c5.3,2.3,10.8,4.7,15.8,7.7
	c2.2,1.3,4.3,2.7,6.4,4.1c0.7,0.5,1.4,0.9,2.1,1.4c1.4,0.9,2.8,1.8,4.1,2.5c0.4,0.2,0.9,0.4,1.4,0.7l-0.1,0.7l-0.1,1.8
	c-0.1,1.8-0.3,3.7-0.5,5.6c-0.3,2.5-0.6,4.9-0.9,7.4L291,710l-0.2,1.2c-0.4,2.1-0.8,4.2-1.2,6.3c-0.2,0.8-0.3,1.6-0.5,2.4
	c-0.6,2.7-1.1,5.4-1.6,8.1c-0.2,1-0.4,1.9-0.6,2.9c-0.4,2.2-0.9,4.4-1.3,6.6c-1.2,7.6-2.6,16.3-3,24.9c-0.2,5.5,0,11.4,0.8,18.8
	l0.2,1.5c0.3,3,0.6,6.2,1.1,9.3c0.1,0.9,0.3,1.8,0.4,2.7c0.3,2.2,0.6,4.5,1,6.7c0.2,0.9,0.3,1.7,0.5,2.6c0.4,2.2,0.8,4.6,1.4,6.8
	l1.6,6.2c0.1,0.4,0.2,0.7,0.3,1.1c0.2,0.8,0.4,1.5,0.6,2.3l2.1,6.4l1.6,4.9c0.7,2,1.4,4,2.2,6c0.3,0.8,0.6,1.6,0.9,2.4
	c2,5.2,4.1,10.8,6.7,16.2c2,4.2,4.1,7.7,6.3,10.7c3,4,6.1,7.3,9.6,10.1c6.6,5.4,14.4,10.3,23.1,14.6c5.2,2.6,9.5,4.3,13.7,5.5
	c3.3,0.9,6.9,1.4,10.7,1.4c1.6,0,3.2-0.1,4.9-0.2c9.1-0.8,18.5-3.7,29.7-8.8c5.2-2.4,10.1-5.6,14.9-8.7l1-0.6l0.5-0.3
	c6-3.9,12.2-7.8,18.8-10.8c5.4-2.1,10.9-3.6,16.3-4.5c2.7-0.3,5.4-0.5,8.1-0.5c3,0,6,0.2,9.1,0.5c5.1,0.8,10.5,2,16.5,3.8
	c2.5,0.8,5.1,1.7,7.5,2.5l0.9,0.3c1.6,0.6,3.4,1.2,5.4,2c-0.1,0.1-0.1,0.2-0.2,0.3c-1,2.2-0.9,4.8,0.3,7c2.9,5.1,5.8,10.6,9.1,17.2
	c1.5,3,2.9,6.2,4.3,9.2c0.8,1.7,1.5,3.4,2.3,5.1c3.4,7.3,7.4,14.4,11.4,21.2c1.5,2.6,3,5.2,4.4,7.8c0.4,0.7,0.8,1.4,1.2,2.1
	c0.9,1.7,1.9,3.4,2.8,5c0.4,0.7,0.9,1.5,1.3,2.2c0.9,1.6,1.9,3.3,3,4.9c3.4,5.2,6.8,10.2,10.8,15c1.8,2.2,3.7,4.4,5.6,6.5
	c2.1,2.3,4,4.3,5.9,6.1c4.2,4.2,7.9,7.5,11.4,10.3c3.5,2.8,6.7,5,9.8,6.9c4,2.4,8.4,4.2,11.8,5.5c6.5,2.5,13.9,4.1,23.8,5.1
	c2.7,0.3,5.6,0.4,8.5,0.4c5.2,0,10.7-0.5,16.6-1.4c7.5-1.2,15.3-3.7,23.9-7.7c4.8-2.3,9.3-5.1,13.4-7.7c5.2-3.3,10.4-6.7,15.6-10
	c4.5-2.9,8.6-5.4,12.6-7.6c0.8-0.4,1.5-0.9,2.3-1.3c1.6-0.9,3.2-1.8,4.9-2.7c2.7-1.4,5.5-2.8,8.2-4.2c7-3.6,12.5-6.3,17.8-8.5
	c4.8-2,9.4-3.5,14-4.8c4.1-1.1,8.7-2,13.9-2.8c12.1-1.3,22.3-2.4,32.8-3c5.4-0.4,10.7-0.7,16-0.7l0.4,0c2.6,0,5.2,0,7.8,0
	c3.5,0,6.9,0,10.4,0c5.6,0,11.6-0.5,19-1.5c8.7-1.2,16.5-3,23.8-5.5c7.6-2.6,15-6.2,22-10.6c3.1-2,6.3-4.2,10-7.1
	c3.6-2.8,6.4-5.3,8.8-7.8c2.7-2.8,5.2-5.9,7.3-9.3c2.1-3.2,3.9-7.1,5.5-11.8c1.1-3.2,2-6.7,2.6-11.1c0.6-3.5,0.9-6.2,1.1-8.8l0-0.3
	c0.2-3.3,0.5-6.5,0.8-9.8c0.2-2,0.2-4,0.2-6c0-1,0-1.9,0-2.9c0.1-3.5-0.1-7-0.2-10.4c0-1-0.1-2.1-0.1-3.1c-0.1-1.7-0.2-3.4-0.4-5.1
	c-0.1-0.9-0.2-1.7-0.2-2.6c-0.2-2-0.3-3.9-0.5-5.9c-0.5-5.3-0.9-10.7-1.3-16.1c-0.5-6.5-0.8-14.1,0-21.6c1.1-7,2.9-13.5,5.1-21.3
	c0.8-2.6,1.5-5.3,2.3-7.9c0.7-2.3,1.4-4.7,2-7c1.3-4.6,2.8-9.4,4.9-15.7c1.5-4.6,3.2-9.1,4.9-13.6l0.1-0.3c1.7-3.9,3.4-7.8,5.4-11.4
	c2.7-4.8,5.9-10.4,9.7-15.5c2.1-2.7,4.5-5.2,7.1-7.6c1.2-1.1,2.5-2.3,3.7-3.4l0.8-0.8c2.2-2,4.3-4.1,6.5-6.3c1.4-1.5,2.8-3,4.1-4.6
	c0.4-0.5,0.9-1,1.3-1.5c0.5-0.6,1-1.3,1.5-1.9c0.2-0.3,0.4-0.6,0.7-0.9c0.3-0.4,0.7-0.9,1-1.3c0.8-1,1.5-2,2.3-3
	c1.9-2.6,3.6-5,5.2-7.3c1.4-2,2.6-4.2,3.8-6.3l0.4-0.7c2.5-4.5,4.5-9.2,6.6-14c2.3-5.4,4.7-11.3,7.3-18.1l0.1-0.2
	c0.9-2.5,1.9-5,2.4-7.6c0.2-1.4,0.5-2.9,0.6-4.5c0.3-2.2-0.1-4.5-0.5-6.8c-0.3-1.7-1-3.4-1.6-4.9l1.2-0.5l3-1.2
	c5.8-2.2,11.7-4.5,17.3-7.2c3.9-1.9,7.7-4.6,12.1-8.4c1.8-1.6,3.5-3.4,5.1-5.1c0.5-0.6,1-1.1,1.6-1.7c2.4-2.5,4.9-5,7.4-7.5l0.2-0.2
	l0.6-0.6c2.2-2.2,4.4-4.4,6.5-6.7l4.1-4.6c0.5-0.5,0.9-1.1,1.3-1.7c0.2-0.2,0.3-0.5,0.5-0.7l2.4-3.2c0.3-0.4,0.7-0.8,1-1.3
	c0.7-0.9,1.4-1.7,2-2.7l1.8-2.7l1.8-2.7c4.4-6.7,7.9-13.1,10.6-19.6c2-4.6,3.4-8.7,4.5-12.5l0.9-3.2l1-3.6c0.7-2.5,1.3-5.1,2-7.6
	c0.2-1,0.5-2,0.7-3c1.8-7,3.2-13.9,4.9-21.6c1.8-8.5,2.8-16,3.2-23.2c0.2-3.6,0.2-7.4,0.1-12.5c-0.3-14.7-0.7-29-2.2-43.4
	c-1.6-15.2-3.3-30.1-7.4-44.8c-0.8-3-1.7-6-2.6-8.8c-0.4-1.3-0.8-2.5-1.2-3.8l-0.4-1.4c-1.3-4.2-2.6-8.4-3.4-12.8
	c-1.8-8.5-3.3-17.3-4.7-26.9l-0.2-2.6l-0.2-2.8c-0.1-1.3-0.2-2.7-0.2-4c0-0.5,0-1.1,0-1.6c-0.1-2.1-0.1-4.3-0.1-6.3
	c0-1.2,0-2.4,0-3.6l0-0.8c-0.2-11.9-0.4-24.1-3.4-35.8c-1.2-4.7-3.2-9.5-5.8-14.4c-2.5-4.7-5.9-9-9.2-13
	c-6.2-7.6-13.7-14.6-22.9-21.5c-8-6-17.1-10.7-27-14c-7.1-2.4-14.5-3.8-20.9-4.9l-1.2-0.2c-2.2-0.4-4.5-0.8-6.8-1.1l-3.8-0.5
	l-3.8-0.5c-1.8-0.2-3.3-0.4-4.9-0.5l-4.2-0.3l-4.3-0.3c-1.2-0.1-2.4-0.1-3.5-0.1h-0.9h-0.2l-1.1,0c-0.4,0-0.7,0-1.1,0l-2.1,0l-3.4,0
	h-0.2c-7.9-0.1-16.1-0.2-24.1-1.1c-6.4-1-12.2-2.5-17.6-4.6c-5.2-2.3-10.3-5.3-15.2-9c-4.1-3.3-8-6.9-11.8-10.4
	c-1-0.9-1.9-1.8-2.9-2.7c-0.6-0.5-1.2-1.1-1.7-1.6c-1.4-1.3-2.8-2.6-4.3-3.8l-3.6-2.9l-3.6-2.9c-2.1-1.7-4.3-3.2-6.5-4.6
	c-0.8-0.6-1.7-1.1-2.5-1.7c-1.6-1.1-3.2-2.2-4.8-3.2l-1.6-1c-4-2.6-7.9-5.5-11.7-8.3l-1-0.7l-2.5-2c-2.7-2.2-5.5-4.5-8.2-6.8l-3.5-3
	l-4.2-3.6c-1.3-1.1-2.6-2.1-3.9-3.1c-0.5-0.4-1.1-0.8-1.6-1.2c-0.6-0.5-1.3-1-1.9-1.5c-1.5-1.2-3.1-2.5-4.7-3.6l-0.1-0.1l-8.3-5.8
	c-2.7-1.9-5.4-3.8-8.1-5.7l-3.5-2.5l-8.2-6.4c-0.7-0.5-1.3-1.1-1.9-1.6l-0.5-0.4l-3-2.6l-3-2.6c-1.9-1.7-3.8-3.4-5.7-5.1l-0.4-0.3
	c-4-3.6-8.4-7.1-13.2-10.5c-4.3-3.1-9-5.4-12.6-7.1c-4.5-2.2-9.2-4.1-13.8-5.7l-2.6-0.9c-3.5-1.2-7.1-2.5-10.7-3.5
	c-4.8-1.4-10-2.3-15.4-2.5c-0.5,0-1,0-1.5,0C711.3,13.7,709.4,13.8,707.7,14L707.7,14L707.7,14z M647.8,62.2c2-0.5,3.7-1.9,4.7-3.6
	c0.4-0.7,0.7-1.6,0.9-2.4c0.9-0.6,1.8-1.2,2.6-1.8c0.4-0.3,0.8-0.5,1.2-0.8c1.6-1.1,3.2-2.2,4.8-3.3c1.1-0.8,2.3-1.5,3.5-2.2
	c0.6-0.4,1.2-0.7,1.7-1.1c1.1-0.7,2.4-1.5,3.6-2.3l3.2-1.9l3.2-1.9c3.2-1.9,6.8-3.7,10.9-5.5c6.8-2.7,13.1-4.5,19.3-5.5
	c1.7-0.2,3.3-0.3,4.9-0.4c0.3,0,0.7,0,1,0h0c1.5,0,3.1,0.1,5.1,0.3c5.2,0.8,10.1,2.4,14.7,4c3.8,1.3,8.3,2.9,12.5,4.6
	c3.4,1.5,6.7,3.1,9.9,4.9c3.1,1.7,6.2,3.8,10.1,6.7c2.8,2.2,5.5,4.6,8.1,6.9c1,0.9,2.1,1.8,3.1,2.8l5.1,4.4L784,66
	c2.7,2.4,5.6,4.6,8.4,6.8c0.9,0.7,1.8,1.4,2.8,2.1c3.1,2.4,6.4,4.7,9.5,6.9c1,0.7,2,1.4,3,2.1c2.3,1.6,4.6,3.2,6.8,4.8l3.8,2.7
	l3.2,2.5l3.1,2.4c1.7,1.3,3.3,2.7,4.9,4l0.8,0.7c5.1,4.4,10.2,8.6,15,12.6c1.8,1.5,3.8,2.9,5.7,4.3c0.6,0.4,1.3,0.9,1.9,1.3l0.9,0.6
	c1.7,1.2,3.5,2.5,5.3,3.7c4.9,3.3,9.9,6.6,15.2,10.3c1,0.8,2,1.6,3,2.5c0.4,0.3,0.8,0.6,1.2,1c0.9,0.7,1.8,1.4,2.6,2.1l2.6,2.4
	c1.8,1.6,3.5,3.3,5.3,4.9l1.3,1.2c3.4,3.2,7,6.5,10.7,9.5c4.2,3.4,8.5,6.3,12.8,8.7c4.3,2.4,9.2,4.5,14.6,6.2
	c5.6,1.8,11.4,2.7,15.8,3.2c5.9,0.7,11.6,1,16.4,1.1c2.4,0.1,4.9,0.1,7.3,0.1c1.2,0,2.4,0,3.5,0c1.8,0,3.5,0,5.3,0.1l0.2,0
	c0.5,0,1,0,1.6,0l0.7,0c0.8,0,1.8,0,2.7,0.1l3.2,0.2l3.3,0.2l1.1,0.1c1,0.1,2.1,0.1,3.2,0.3c2.7,0.4,5.4,0.7,8.1,1.1l3.5,0.6
	l6.6,1.2c7.8,1.4,15.1,3.4,21.7,6.1c6.4,2.9,12.7,6.6,18.8,11.2c7.5,6,14.2,12.7,20,20c3.1,4.1,5.5,8.1,7.3,12.2
	c1.7,4.5,2.9,9.4,3.8,15.2c0.6,5.1,0.8,10.2,0.9,15.2l0.1,1.6c0.1,2.7,0.1,5.4,0.2,8l0,1.4c0,3.9,0.1,7.9,0.3,12
	c0,1.2,0.2,2.4,0.3,3.6c0.1,0.6,0.1,1.2,0.2,1.8c0.2,1.7,0.4,3.5,0.7,5.2l0.2,1.3c1.2,8.2,2.3,14.9,3.6,20.9
	c0.4,1.9,0.8,3.8,1.2,5.6c0.3,1.4,0.7,2.8,1,4.1c0.2,0.7,0.4,1.4,0.6,2.1c0.6,2.4,1.4,4.9,2.1,7.3l0.6,2c0.9,2.9,1.8,6,2.7,9
	c0.8,3,1.6,6.1,2.5,9.9c1.3,5.4,2.1,11,2.9,16.5l0.1,0.6c1.2,9.4,2.6,21.8,3.1,34.3c0.3,5.9,0.5,12.2,0.6,18.5
	c0.2,8.5,0.4,17.2-0.7,25.9c-1.4,9.6-3.7,19.2-5.9,28.5l-0.5,2.1c-0.6,2.7-1.3,5.4-2,8l-0.8,3.2c-1.9,7.4-3.6,12.9-5.6,17.9
	c-2.1,4.8-4.7,9.8-8,15.2c-0.8,1.3-1.7,2.7-2.6,4c-0.4,0.7-0.9,1.3-1.3,2c-0.9,1.3-1.8,2.8-2.9,4.2l-3.7,4.8l-3.8,4.2l-1.9,2.1
	c-0.6,0.7-1.2,1.3-1.9,1.9c-0.3,0.3-0.6,0.6-0.9,0.9l-0.6,0.6c-0.7,0.8-1.5,1.5-2.2,2.2c-0.6,0.6-1.2,1.2-1.8,1.7
	c-1.4,1.4-2.8,2.8-4.1,4.2c-0.6,0.6-1.1,1.2-1.7,1.8c-2.7,2.8-5.5,5.8-8.5,8.3c-2,1.5-4,2.7-6,3.8c-2,1.1-4.1,2-6.1,2.9
	c-2.8,1.1-5.7,2.3-8.5,3.3c-2.3,0.9-4.7,1.8-7,2.7l-0.3,0.1c-3.8,1.5-7.6,3-11.6,4.3c-2.2,0.7-4.4,1.4-6.6,2.1
	c-1.9,0.6-3.7,1.3-5.5,2l-0.7,0.3c-3.4,1.3-6.8,2.8-10.1,4.3l-1.7,0.8c-5,2-9.3,3.5-13.8,4.3c-1.4,0.1-2.9,0.2-4.5,0.2
	c-0.5,0-1.1,0-1.6,0c-1.5,0-3-0.3-4.5-0.5c0,0-0.1,0-0.1,0c0.3,0,0.6,0.1,0.8,0.1c-0.9-0.1-1.8-0.3-2.7-0.4
	c-3.5-0.5-6.5-0.9-9.4-1.3c-2.7-0.3-4.9-0.5-6.9-0.5c-0.9,0-1.9,0-2.7,0.1c0-0.1,0.1-0.3,0.1-0.4c0.3-1.4,0.6-3,0.9-4.5
	c1.2-6.8,2-13,2.6-18.8c0.3-2.8,0.5-5.9,0.6-9.5c0.2-6.8-0.9-13.8-3.1-20.2c-1.5-4.2-3.1-8.3-4.6-12.1c-1.4-3.6-2.9-7.4-4.1-11.2
	c-1.3-4.1-2.4-7.8-3.2-11.6c-0.9-4-1.7-8.1-2.3-12.1c-0.2-2-0.5-4.1-0.6-6.2l-0.2-2.3l-0.1-2.3c-0.2-2.9-0.1-6.2,0.4-10.1
	c0.5-3.5,1.3-6.7,2.3-9.8c0.6-1.7,1.3-3.3,1.9-5l0.5-1.2l0.6-1.6c0.7-1.8,1.5-3.6,2.2-5.4l0.3-0.7c1.2-3,2.4-6,3.4-9.1
	c1.2-3.7,1.9-7.6,2.5-11.3l0.2-1.1c2.2-12.1,2.1-24.4,1.8-33.7c-0.2-5.6-0.5-11.1-1-16.3c-0.3-3.2-0.8-6.4-1.2-9.3
	c-0.3-1.9-0.7-4.4-1.4-6.8c-0.9-3.1-2.2-6-3.3-8.7c-3.2-7.1-6.4-13.9-11.9-19.2c-4.6-4.4-9.4-8.1-14.3-11.1c-3-1.8-6.4-3.1-9.6-4.3
	l-0.6-0.2c-2.6-1-4.6-1.7-6.6-2.4c-2.4-0.8-5.1-1.2-8-1.2c-4.1,0-8.2,0.8-12.2,1.5l-0.2,0c-1.1,0.1-2.2,0.2-3.3,0.2
	c-1.6,0.1-3.2,0.6-4.5,1.6c0,0,0,0,0,0l-0.2-0.4l-0.1-0.3c-1.5-3.7-3.1-7.7-4.3-11.8l-0.6-2l-0.6-2c-0.3-0.9-0.4-1.8-0.6-2.7
	c-0.1-0.5-0.2-0.9-0.3-1.4c-0.4-1.9-0.7-3.9-1-5.8c-0.4-3.7-0.7-7.6-1-11.2c-0.7-8.2-1.4-16.8-2.9-25c-0.7-3.7-1.7-7.4-3-11.2
	c-1.7-4.7-3.7-9-6-12.8c-2.1-3.3-4.7-6.6-7.8-9.7c-2.2-2.2-4.8-4.2-7.1-5.9c-2.5-1.9-5-3.7-7.7-5.5c-2-1.4-4.1-2.7-6.1-3.9l-1.4-0.9
	c-1.6-1-3.3-1.9-4.9-2.8c-0.7-0.4-1.5-0.8-2.2-1.2c-0.7-0.4-1.5-0.8-2.2-1.1c-0.4-0.2-0.8-0.4-1.1-0.5c-0.4-0.2-0.8-0.4-1.1-0.6
	c-0.8-0.4-1.6-0.8-2.4-1.2l-1.7-0.8c-5.1-2.3-10.4-4.6-15.8-6.4l-2.5-0.8l-2.5-0.8c-2.9-1-5.9-1.6-9.5-2.3c-6.9-1.3-14.1-2-21.4-2
	c-1.5,0-3,0-4.5,0.1c-8.7,0.3-17.4,2-25.5,3.7c-2.3,0.5-4.6,1.1-6.8,1.6c-0.9,0.2-1.9,0.5-2.8,0.7c-3.2,0.8-6.4,1.7-9.4,2.6
	l-2.9,0.9c-2.2,0.7-4.4,1.3-6.5,1.9c-0.8,0.2-1.6,0.5-2.4,0.7c-4.2,1.2-8.5,2.5-12.9,3.2c-1.7,0.2-3.4,0.3-5,0.3
	c-1.2,0-2.5-0.1-3.7-0.2c-2.3-0.4-4.6-1.1-7-1.9c-4.2-1.9-7.9-4.5-10.9-6.8l-2.4-1.9c-7.7-6.2-15.7-12.7-24.9-16.9
	c-7.9-3.6-16.2-5.9-24.9-6.7c-1.4-0.1-2.9-0.2-4.4-0.2c-7.9,0-15.6,2-21.5,3.7c-5.3,1.6-10.6,3.5-15.7,5.4l-1.7,0.6
	c-1.9,0.7-3.8,1.5-5.7,2.3l-1.8,0.7l-0.4,0.2c-2.7,1.1-5.4,2.3-8.1,3.5c-1.7,0.8-3.4,1.6-5.2,2.5c-3.4,1.6-7,3.4-10.5,4.9
	c-4.8,2-8.8,3.2-12.5,4l-6.7,1.4c-2.7,0.6-5.6,1-8.3,1.5l-2.8,0.5c-1.1,0.2-2.2,0.4-3.3,0.7c-0.5,0.1-1,0.2-1.5,0.3
	c-0.6,0.1-1.1,0.2-1.7,0.3c-1.1,0.2-2.3,0.4-3.5,0.7l-3.2,0.8l-3.2,0.8l-1.4,0.4c-2.9,0.7-5.8,1.5-8.8,2c-1.2,0.1-2.4,0.2-3.6,0.2
	c-0.6-1.6-1.1-3-1.5-4.3c-0.7-2.5-1.2-5-1.5-7.2c-0.3-2.3-0.4-4.5-0.5-6.7c-0.1-2.3,0.1-4.7,0.4-7.8c1.1-7,2.9-13.7,5.4-19.8
	c1.5-3.2,3-6.1,4.8-8.6c1.4-1.7,3-3.3,4.8-4.8c3-2.2,6.6-4.1,11.2-6.1c6.9-2.8,14.2-4.8,21.3-6.7l3.1-0.9c7.9-2.2,14.3-4.1,19.9-6.1
	l2.6-0.9c13.4-4.7,27.3-9.6,40.5-15.6c7.2-3.3,14.2-6.9,20.8-10.3c5.9-3.1,11.9-6.2,17.9-9.4c3.5-1.9,7-3.9,10.8-6
	c1.1-0.6,2.2-1.3,3.2-2l0.6-0.4l1-0.6c1.1-0.7,2.2-1.4,3.3-2.2c3.4-2.5,6.8-5.1,10.1-7.7c2.9-2.3,5.7-4.7,8.6-7l2.5-2l2.4-2
	c0.2,0,0.4,0,0.6,0C646.4,62.5,647.2,62.4,647.8,62.2L647.8,62.2L647.8,62.2z M294.7,667.5c-1.2-0.8-2.4-1.6-3.6-2.4
	c-3.8-2.4-7.6-4.5-11.5-6.3c-1.7-0.8-3.4-1.5-5-2.2c-2.1-0.9-4.2-1.8-6.3-2.8c-4.8-2.4-9.6-4.8-13.8-7.9c-1-0.8-2-1.6-2.9-2.4
	c-2.2-1.8-4.5-3.7-6.8-5.5l-0.7-0.5c-2-1.6-4.1-3.2-6.1-4.8c-4.9-3.9-9.3-8.2-13.1-12.8c-2.7-3.6-4.8-7.2-6.5-10.8
	c-0.6-1.7-1.2-3.3-1.6-4.9c-0.6-2-0.9-4-1.2-5.9c-1.1-10-0.2-20.1,0.6-29.9l0.2-2.4c0.2-2.4,0.4-4.9,0.6-7.3
	c0.1-1.9,0.2-3.8,0.3-5.6c0.1-1.4,0.1-2.8,0-4.2c0-0.7,0-1.4,0-2c0-2.6-0.1-5.3-0.2-7.9l-0.1-2.5c0-0.9-0.1-1.9-0.1-2.8l-0.1-1.3
	c0-0.6-0.1-1.2-0.1-1.8c-0.1-1.1-0.1-2.3-0.2-3.5c-0.1-1-0.2-1.9-0.3-2.9c-0.2-2.9-0.5-5.9-0.9-8.8c-0.1-0.7-0.2-1.5-0.3-2.2
	c-0.4-2.8-0.8-5.6-1.4-8.4c-0.2-0.7-0.3-1.4-0.5-2.1c-0.3-1.6-0.7-3.2-1.1-4.7l-1.2-4.1l-1.1-4c-0.5-1.8-1.1-3.6-1.6-5.4
	c-0.3-0.8-0.5-1.6-0.8-2.5c-1.6-5.3-2.8-10.7-3.7-16.5c-0.4-3.5-0.7-7-1.1-10.4c-0.3-3-0.6-6.1-0.9-9.1l-0.1-1
	c-0.4-3.6-0.8-7.3-1.3-11c-0.2-1.1-0.3-2.2-0.4-3.3c-0.3-2.4-0.6-4.9-1-7.3l-0.4-2.1c-1.1-6.2-2.2-12.7-4-18.9l-0.2-0.6
	c-0.9-3.3-1.9-6.7-3.1-10c-1.2-3.5-2.5-7.1-4-10.9c-1.3-3.4-2.6-6.8-3.9-10.2c-0.5-1.3-0.9-2.6-1.3-3.8c-0.2-0.6-0.4-1.2-0.6-1.8
	l-0.3-0.8c-0.4-1.1-0.8-2.3-1.1-3.4c-0.2-0.9-0.5-1.8-0.8-2.7c-0.8-2.7-1.6-5.5-2.2-8.3c-1.3-5.8-2.8-12.5-3.8-19
	c-0.6-4.7-0.9-8.6-1-12.2c-0.1-4.2,0.1-8.5,0.6-12.8c1-6.6,2.5-13.6,4.9-22.1c2.6-9.1,5-16.4,7.7-23c1.7-3.8,3.6-7.6,6.1-11.8
	c2.3-4,5.1-7.9,7.7-11.4c3.1-3.9,6.6-8.4,10.2-12.8l0.4-0.5c7.5-9.3,15.3-18.9,24.9-26.5c4-3,8.2-5.7,12.9-8.5
	c2.6-1.5,5.2-3,7.5-4.3c4-2.3,8-4.5,11.9-6.8c1.2-0.7,2.5-1.4,3.7-2.2c1.9-1.1,4-2.3,6-3.4c0.6-0.3,1.1-0.6,1.7-1
	c1.2-0.7,2.5-1.4,3.8-2.1l2.1-1l4-2c12.8-5.3,26-10.2,38.3-14.7l3.3-1.2c9.5-3.5,19.4-7.1,28.5-11.9c3.7-2,7.6-4.4,12.1-7.5
	c1.9-1.3,3.7-2.8,5.5-4.2l1-0.8c2.6-2,5.5-4.3,8.3-6.6c3.9-3.3,7.4-6.2,10.8-9.5c6.1-5.7,11.8-12.2,17.4-19.9
	c2.9-4,5.6-8.2,8.1-12.3c2.7-4.3,5.4-8.7,8.5-12.8c2.7-3.4,5.6-6.3,8.9-9c4-3,8.8-5.6,14.5-8.1c2.9-1.2,5.9-2.3,8.8-3.3
	c1-0.4,2-0.7,2.9-1.1c0.9-0.3,1.9-0.6,2.9-0.9c0.4-0.1,0.9-0.3,1.4-0.4c2.1-0.7,4.2-1.3,6.2-2c1-0.3,2-0.5,3.1-0.8
	c0.5-0.1,1-0.2,1.4-0.3l1.3-0.3l4.8-1.2c1.1-0.3,2.2-0.4,3.3-0.6c0.5-0.1,1.1-0.1,1.6-0.2l2.5-0.4l2.5-0.4c3.6-0.4,7.2-0.7,10.8-1.1
	c2.4-0.2,4.9-0.4,7.3-0.5c1.1-0.1,2.1-0.1,3.2-0.2c2.9-0.2,5.9-0.3,9.2-0.4c0.9,0,1.8-0.1,2.7-0.1c1.8-0.1,3.6-0.1,5.4-0.1
	c0.7,0,1.4,0,2.2,0c1.2,0,2.3,0.1,3.5,0.1c2.5,0,5.1,0.1,7.6,0.3l5.6,0.4l5.8,0.4c2.6,0.2,5.3,0.5,7.9,0.8c1.3,0.1,2.5,0.3,3.8,0.4
	c2.5,0.3,5,0.6,7.4,0.9c1.1,0.1,2.1,0.3,3.2,0.4l0.1,0l0.2,0c3.2,0.5,6.5,1,9.7,1.4c8.5,1.3,16.6,3.4,24,6.4c5,2.2,10,5,15.4,8.6
	c-0.3,0.2-0.6,0.5-0.9,0.7c-2.6,2.1-5.3,4.3-7.8,6.5c-1.3,1.1-2.7,2.2-4.1,3.4l-0.9,0.7c-1.9,1.5-3.9,3-5.9,4.3l-2.6,1.7l-2.4,1.6
	c-1.2,0.8-2.5,1.5-3.7,2.2c-0.6,0.4-1.3,0.7-1.9,1.1c-4.4,2.6-9,5.1-13.5,7.5c-1.4,0.8-2.8,1.5-4.2,2.3c-5.9,3.2-12.9,7-20,10.7
	c-5.8,3-11.7,5.6-18.2,8.4l-2.7,1.1c-12.3,4.9-25.1,10.1-37.8,14.3c-3.9,1.3-7.8,2.5-11.4,3.7c-0.8,0.3-1.7,0.5-2.5,0.8
	c-2.1,0.6-4.3,1.3-6.4,2.1c-6.9,2.4-13.7,4.9-20,8.4c-4.3,2.4-8,5.4-11.1,8.8c-2.9,3.3-5.5,7.4-7.7,12.6c-4.2,9.8-6.7,20.3-7.2,30.4
	c-0.2,5.2,0.6,10.5,1.3,15c0.3,1.4,0.6,2.9,1,4.4c-0.4-0.1-0.8-0.2-1.3-0.3c-2.7-0.7-5.4-1.6-8-2.6c-3.2-1.5-6.2-3.2-9-5.2l-1.4-1.1
	c-2.2-1.8-4.6-3.6-7-5.3c-1.6-1.1-3.4-1.9-4.9-2.6c-1.2-0.5-2.4-1-3.6-1.4c-1.3-0.4-2.7-0.5-4-0.6l-0.6-0.1c-0.4,0-0.7,0-1.1,0
	c-1.7,0-3.5,0.3-5.2,0.7c-1.1,0.2-2.4,0.8-3.4,1.3l-0.2,0.1c-0.8,0.4-1.6,0.8-2.5,1.3c-3.3,1.9-6.4,4.7-9.4,8.4
	c-5,6.1-8.8,13.6-11.7,22.9c-1.5,4.9-2.7,10.4-3.6,16.9l-0.2,1.4c-0.4,3-0.8,6-1.1,9.1l-0.4,5.1c-0.1,0.9-0.1,1.9,0,2.8
	c0,0.4,0,0.8,0,1.2c0,2.9,0.1,5.8,0.2,8.6l0,0.3c0.1,2.7,0.3,5.3,0.6,7.6c0.1,1,0.2,2,0.3,3c0.2,2.3,0.5,4.7,0.9,7l0.6,3.8l0.7,4.5
	c0.3,1.7,0.7,3.4,1.1,5.1c0.2,0.8,0.4,1.7,0.6,2.5c0.2,0.8,0.4,1.6,0.7,2.4c0.1,0.4,0.2,0.7,0.4,1.1c0.1,0.4,0.2,0.7,0.3,1.1
	c0.2,0.8,0.5,1.6,0.8,2.4c1.1,2.7,2,5.1,3,7.4c-7.6,3.7-15.7,7.6-23.4,12.2c-8.6,5.1-15.9,10.2-22.3,15.8
	c-4.9,4.3-9.7,9.7-14.5,16.3c-0.6,0.9-1.2,1.7-1.9,2.5c-1.3,1.8-2.7,3.6-3.9,5.4l-3.1,4.7l-3.1,4.7c-1.2,1.9-2.5,3.8-3.6,5.6
	c-0.6,0.9-1.2,1.9-1.7,2.8c-1.3,2-2.5,4.1-3.8,6.1l-0.9,1.4c-2.6,4.3-5.9,9.9-8.8,15.9c-1.9,4-3.8,8.3-5.5,12.8
	c-1.5,3.9-2.6,7.2-3.4,10.2l-1.5,5.6l-1.5,5.6c-0.6,2.1-1,4.3-1.5,6.4c-0.2,0.9-0.4,1.8-0.6,2.8c-0.6,2.8-1.2,5.6-1.7,8.4l-0.1,0.4
	l-0.8,4.3c-0.3,1.4-0.4,3-0.6,4.4c-0.1,0.7-0.2,1.4-0.3,2.1l-0.3,2.6l-0.3,2.5c-0.5,3.8-0.7,8-0.6,13.1c0.2,9.1,2,18.3,5.4,27.2
	c1.5,3.9,3.4,8,5.7,12.3c1.9,3.6,4.1,7,6.2,10.4l1,1.6c1.2,1.9,2.4,3.8,3.7,5.7l1.7,2.7c3.5,5.4,6.3,10.6,8.6,15.9
	c1.5,3.7,2.7,7.5,3.7,11.4c0.8,3.2,1.5,6.6,2.1,11.1c0.8,6.6,1.1,13.3,1.4,19.8l0.1,3.1c0.1,2,0.1,4.1,0.1,6.1c0,1,0,2,0,3.1
	c0.1,5.3-0.2,10.5-0.8,15.4c-0.5,3.8-1.3,7.6-1.9,11.3c-0.4,2-0.7,4-1.1,6c-0.2,0.9-0.3,1.8-0.5,2.7c-0.3,1.8-0.7,3.7-1,5.6l-0.1,1
	l-0.9,6.5L294.7,667.5L294.7,667.5L294.7,667.5z M457.3,223.4c2.6-0.3,5-0.7,7.2-1.2c1.2-0.3,2.4-0.6,3.5-0.9c0.5-0.1,1-0.3,1.5-0.4
	l4.9-1.3c2.4-0.6,4.9-1.2,8.1-1.8c2.8-0.6,5.3-1.1,7.9-1.5l2.1-0.4c2.1-0.4,4.2-0.7,6.3-1.1l0.2,0c4.6-0.9,8.9-1.8,13.3-3.2
	c5-1.6,9.8-3.8,14.5-6l0.7-0.3c2.7-1.2,5.3-2.5,8-3.7l4.4-2.1l2.4-1l4.8-2c2-0.8,4.1-1.6,6.1-2.3c0.7-0.2,1.3-0.5,2-0.7
	c2.6-1,5.2-1.8,7.7-2.6c5-1.6,10.5-3.3,16.2-4.2c1.6-0.2,3.2-0.2,4.9-0.2c1.9,0,4,0.1,6,0.3c5,0.8,9.9,2.2,14.7,4.1
	c5.3,2.4,10.5,5.5,15.9,9.6c2.4,1.9,4.8,3.8,7.2,5.7l1.6,1.3c2.9,2.3,5.1,4,7.3,5.5c3.2,2.2,7,4.1,11.6,5.8c3.3,1.2,7.1,2,12,2.3
	c0.7,0,1.4,0.1,2.2,0.1c3.8,0,7.7-0.6,10.9-1.2c3.4-0.6,6.8-1.6,10-2.6c0.8-0.2,1.7-0.5,2.5-0.7c2-0.6,4-1.2,6.1-1.8
	c3.3-1,6.7-2,10-2.9c5.4-1.5,11-2.9,16.5-4c3.5-0.7,7.2-1.3,10.2-1.8c4.2-0.5,8.5-0.7,12.7-0.7c4.3,0,8.7,0.3,13,0.8
	c4.1,0.6,8.2,1.5,12.1,2.6c1.4,0.4,2.8,0.9,4.2,1.4c0.5,0.2,1.1,0.4,1.6,0.5c2.4,0.8,4.9,1.8,7.2,2.7l1.2,0.5l0.4,0.2
	c2.6,1.2,5.3,2.4,7.9,3.7c0.5,0.2,0.9,0.5,1.4,0.7c1.1,0.5,2.1,1,3.2,1.6l0.4,0.3l5.4,3.1c1,0.5,1.9,1.2,2.8,1.8
	c0.4,0.2,0.8,0.5,1.1,0.7c1.3,0.8,2.7,1.7,4,2.6c2.7,1.9,5.4,3.8,8.4,6c2.9,2.4,5.2,4.7,7.2,7.1c2.1,2.9,3.8,6,5.4,9.5
	c2.1,5.3,3.5,10.3,4.1,15l0.3,1.8l0.3,2.5c0.5,5.3,1.1,10.9,1.5,16.6c0.3,3.1,0.6,6.4,0.9,9.5c0.4,3.6,0.9,6.6,1.5,9.3l0.1,0.7
	l0.9,3.9c0.2,1.1,0.6,2.2,0.9,3.3c0.2,0.5,0.3,1.1,0.5,1.6c0.3,1,0.7,2,1,3.1c0.1,0.4,0.3,0.8,0.4,1.3c0.3,1,0.7,1.9,1.1,2.9
	l0.6,1.4c1.1,2.7,2.3,5.6,3.6,8.3c0.8,1.7,1.7,3.5,2.8,5.3c1.6,2.8,3.6,5.7,6.3,9.1c2.1,2.6,4.2,5.2,6.6,7.9c2,2.3,3.9,4.6,5.9,7.1
	c3.6,5,7.2,10.5,10,16.5c1.5,3.8,2.6,7.6,3.2,11.4c0.3,2.9,0.3,5.7,0,8.6c-0.6,3.7-1.7,7.3-3.2,11.2c-2,4.6-4.6,8.9-7.5,12.9
	c-2.5,3.1-5.4,6.2-8.8,9.3c-1.3,1.2-2.7,2.3-4,3.4c-1.8,1.2-3.6,2.4-5.6,3.5c-1.9,1.1-3.8,2-5.7,2.9l-0.2,0.1
	c-4.2,1.7-8.6,3.3-12.8,4.9l-1.2,0.5c-2.7,1-6.3,2.4-9.8,4.1c0.1-0.3,0.3-0.6,0.4-1c0.7-1.6,1.2-3.1,1.7-4.4
	c1.7-4.7,3.2-9.9,4.6-15.3c1.3-5.2,2.6-10.3,3.5-15.6c0.6-3.2,0.9-6.1,0.9-8.8c0.1-2.7,0-5.3-0.1-7.8c0-1.1-0.2-2.1-0.3-3.1
	l-0.1-0.8c-0.2-2.2-0.4-4.5-1.6-6.4c-1-1.7-2.1-2.9-3.7-4c-1.3-0.9-2.9-1.5-4.3-2c-0.3-0.1-0.7-0.1-1-0.2c-1-0.2-1.9-0.3-3-0.4
	c-0.2,0-0.4,0-0.7,0c-0.9-1.3-1.7-2.7-2.6-4.1l-0.7-1.1c-0.6-1-1.2-2.2-1.9-3.8c-1.3-3.7-1.9-7.6-2.4-11.2l0,0.1c0,0,0-0.1,0-0.1
	c0,0.1,0,0.1,0,0.2l0,0c0-0.1,0-0.3-0.1-0.4c0,0,0,0,0-0.1c0,0,0,0,0,0c0,0,0,0,0,0c-0.1-0.7-0.2-1.5-0.3-2.2
	c-0.2-1.6-0.9-3.1-1.6-4.5c-0.7-1.4-2-2.8-3.9-4.1c-0.9-0.6-1.8-1.1-2.6-1.4c-2.5-1.1-5.3-2.3-8-2.9l-0.6-0.1
	c-0.9-0.2-1.8-0.4-2.7-0.7c-0.5-0.2-1-0.3-1.4-0.5c-0.6-0.2-1.3-0.5-2-0.6c-1.5-0.4-3.2-0.6-5.1-0.6c-0.4,0-0.8,0-1.2,0
	c-0.2-2-0.5-4.3-1.2-6.5c-0.9-2.9-2.1-5.8-3.6-8.7c-0.5-1-1.1-1.9-1.7-2.9l-0.1-0.2c-2-3.1-4.1-5.6-6.3-7.6c-2.4-2.1-5-4-7.6-5.6
	c-1.4-0.9-3-1.7-4.5-2.4c-3-1.5-6.2-2.5-9.4-3.2c-3.2-0.7-6.5-1-9.6-1.3c-1.7-0.2-3.4-0.2-5.1-0.2c-1.7,0-3.4,0-5.1-0.2
	c-1.6-0.3-3-0.6-4.3-1.1c-0.6-0.3-1.2-0.6-1.7-1c-2-1.7-3.8-3.1-5.8-4.1c-1.6-0.8-3.3-1.4-4.9-1.9l-0.4-0.1
	c-1.2-0.4-2.5-0.9-3.8-1.4c-3.6-1.8-6.9-4.2-10.1-6.5l-0.7-0.5c-3.7-2.7-7.2-4.1-10.8-4.3c-0.3,0-0.7,0-1,0c-2,0-4.2,0.4-6.3,1.1
	c-1.5,0.5-2.9,1.2-4.3,1.9l-0.7,0.3c-0.8,0.4-1.6,0.8-2.5,1.2c-0.6-0.7-1.3-1.4-2.2-2c-1.5-1-3-2-4.8-2.9c-1-0.5-2-1-3.1-1.4
	c-0.5-0.2-1-0.4-1.4-0.6c-1.8-0.8-3.5-1.6-5.1-2.4c-1-0.5-2-1.2-3.3-2.1c-1.1-0.9-2.4-2-3.6-3.2c-1-1-2-2.1-3-3.4
	c-1.1-1.5-2.1-3.1-3.2-4.6c-1.8-2.7-3.7-5.5-5.8-8l-0.2-0.2c-0.7-0.8-1.5-1.7-2.3-2.5c-1.7-1.5-3.4-2.9-4.9-4
	c-1.3-1-2.7-1.8-4.4-2.6c-1.3-0.6-2.7-1.2-4.2-1.5c-3.1-0.8-5.8-1.2-8.4-1.3c-0.5,0-0.9,0-1.4,0c-5.4,0-10.8,1-15.7,2
	c-5.3,1.1-10.6,2.7-15.3,4.1c-2,0.6-4.2,1.1-6.2,1.6c-1.2,0.3-2.4,0.6-3.6,0.9c-1.1,0.3-2.2,0.6-3.3,0.9c-2.3,0.7-4.8,1.3-7.2,1.8
	c-1.2,0.1-2.4,0.2-3.6,0.2c-1.8,0-3.8-0.1-5.9-0.3c-3-0.5-5.6-1.1-7.7-2l-2.8-1.1l-0.2-0.1l-0.4-0.2c-1.9-0.9-3.9-1.7-5.9-2.7
	c-0.9-0.4-1.7-0.8-2.6-1.3c-2.4-1.2-4.9-2.4-7.4-3.4c-1.7-0.7-3.2-1.2-4.7-1.6c-2-0.5-4.1-0.8-5.9-1c-0.9-0.1-1.9-0.2-3.1-0.2
	c-1,0-2,0-2.9,0.1l-1.1,0c-2.5,0.1-5.2,0.3-8.1,0.7c-2.9,0.4-6.1,1.6-9.6,3.6c-2.5,1.4-5.1,2.9-7.7,4.6c-3.3,2.3-6,4.5-8.2,7
	c-2.3,2.5-4.3,5.6-6.2,9.2c-2.7,5.1-4.7,11.2-6.2,18.5c-0.6,2.7-1,5.5-1.5,8.1c-0.3,1.8-0.6,3.6-0.9,5.4c-0.5,2.5-1,4.9-1.5,7.2
	c-0.5,1.9-1.2,3.8-1.9,5.6l-0.3,0.8c-1.4,3.1-2.9,5.7-4.6,8.1c-1.6,2-3.5,3.8-5.8,5.6l-0.2,0.2c-0.8,0.6-1.6,1.2-2.4,1.9
	c-1.8,1.3-3.5,2.7-5.2,4.3c-1.6,1.6-3.1,3.5-4.7,6c-1.4,2.2-2.5,4.6-3.3,6.7c-0.9,2.1-1.5,4.2-2,6.3c-1.4,6.1-1,12.6-0.4,18.1
	c0.2,2.3,0.6,4.4,0.9,6.3c0.5,2.5,1.3,4.8,2,6.6c0.5,1.4,1.2,2.9,1.7,4.3c0.2,0.5,0.5,1.1,0.7,1.6c1.5,3.7,3.3,7.3,5,10.8l0.3,0.5
	c0.2,0.3,0.4,0.6,0.6,0.9c0.1,0.4,0.4,0.8,0.6,1.2c0.5,0.7,1.1,1.3,1.7,2c0.3,0.4,0.6,0.7,0.9,0.9c0.3,0.3,0.6,0.6,0.8,0.9
	c0,0.4-0.1,0.7-0.1,1.1c-0.3,3,0,6,0.4,8.6c0.4,3.2,0.9,6.2,1.6,9.1c0.6,2.5,1.7,5,2.7,7.2c1,2.2,2.5,4.1,4,5.9l0.4,0.5
	c0.8,1,1.7,2,2.5,3c0.5,0.6,1.1,1.2,1.6,1.9c0.8,1.2,1.5,2.3,2.1,3.5c0.7,1.9,1.2,3.9,1.6,6.3c0.3,2.7,0.3,5.7,0,9.2
	c-0.1,1.2-0.2,2.4-0.4,3.5c-0.4,2.4-0.8,4.9-1.5,7.3c-0.3,1-0.6,2.1-1,3.2c0,0-0.1,0-0.1,0c-1.4-0.5-2.9-1.1-4.4-1.6
	c-2.3-0.8-4.7-1.2-7.4-1.2c-2.4,0-4.9,0.3-7.6,1c-2.2,0.5-4.3,1.4-6.3,2.3c-2.1,0.9-4,2-5.9,3.2c-3.9,2.5-7.3,5.6-10.2,9.2
	c-1.5,1.8-2.8,3.7-3.9,5.6c-1.4,2.4-2.4,4.9-3.4,7.3c-0.5,1.1-0.9,2.3-1.3,3.6l-0.2,0c-2.5,0-5.2-0.1-7.8-0.4
	c-4.3-0.7-7.7-1.5-10.7-2.6c-1.4-0.7-2.6-1.4-3.9-2.3c-1.1-0.9-2-1.9-3-2.9c-0.8-1.2-1.6-2.6-2.3-4.1c-2.1-5.6-3.1-11.7-3.9-16.6
	c-0.5-5-1.1-10.2-0.6-15.4c0.4-2.5,1.1-4.9,2-7.2c2.9-6.3,6.9-12.1,10.7-17.7c0.8-1.2,1.7-2.4,2.5-3.6l2.1-3.1l3.5-5.2
	c4.2-6.3,7.7-12.9,10.2-19.8c2.5-6.8,4.1-14.6,5-24.8c0.8-8.4,0.6-17.2-0.7-26.3c-0.6-4.1-1.3-7.8-2.4-11.3c-1.2-4-2.9-7.9-4.5-11.6
	l-0.3-0.6c-0.8-1.8-1.7-3.7-2.5-5.5c-0.4-0.9-0.8-1.7-1.2-2.6c-0.7-1.6-1.4-3.1-2.2-4.6c-1.4-3-2.8-6-4.2-9l-0.4-1.1
	c-0.6-1.5-1.2-3-1.7-4.5c-0.2-0.7-0.4-1.4-0.7-2.1c-0.5-1.6-1.1-3.3-1.5-5c-0.2-0.8-0.4-1.5-0.6-2.3c-0.4-1.6-0.8-3.3-1.1-5
	l-1.2-7.3c-0.6-5.3-1.2-11.1-1.5-16.8c-0.1-3.1-0.1-6.3-0.1-9.5c0-2,0.2-4.1,0.4-6.2c0.1-0.8,0.1-1.6,0.2-2.4c0.3-2.3,0.6-4.6,1-6.9
	c0.4-3.2,1.2-6.3,2.1-10c0.8-3.2,1.9-6.5,3.2-9.7c1.7-3.8,3.5-7,5.6-9.9c1.5-1.8,3-3.4,4.6-4.8c0.9-0.6,1.8-1.2,2.8-1.7
	c0.4-0.1,0.8-0.2,1.2-0.3c0.2,0,0.5,0,0.7,0c0.3,0,0.6,0,0.9,0c0.6,0.1,1.1,0.3,1.7,0.5c1.2,0.6,2.4,1.2,3.5,1.9
	c1,0.7,2,1.4,2.9,2.1c0.5,0.4,1.1,0.9,1.6,1.3c1.1,0.9,2.2,1.8,3.4,2.7c1.3,1,2.8,2,4.8,3.1c3.5,2.1,7.6,3.9,12.7,5.5
	c3.8,1.2,7.8,2.1,11.9,2.7c3.3,0.5,6.3,0.7,9,0.7C453.9,223.7,455.6,223.6,457.3,223.4L457.3,223.4L457.3,223.4z M444.2,335.8
	c2.3-1.7,4.5-3.5,6.5-5.4c1.8-1.7,3.4-3.8,5.4-6.7c2.3-3.5,3.9-7.6,5.2-11.2c0.7-1.8,1.1-3.6,1.5-5.5l0.2-0.8
	c0.4-1.8,0.7-3.7,0.9-5.4l0-0.3l0-0.3c1.3-8.4,2.6-17.2,5.8-25.2c1.5-3.3,3.1-6.2,5-8.8c1.6-1.9,3.3-3.7,5.4-5.3
	c3.7-2.7,7.7-5.1,12-7.1c1.6-0.6,3.1-1,4.7-1.3c1.9-0.2,3.9-0.3,6.5-0.3h0.2c2.2,0,4.1,0,6.1,0.2c2.3,0.4,4.6,1.1,7,2
	c2.1,0.9,4.1,2,6,3.1l1.6,0.8c1.9,1,3.8,2,5.9,3.1c2.9,1.4,5.4,2.6,7.8,3.6c2.9,1.2,5.9,2,9.4,2.6c1.3,0.2,2.6,0.4,3.9,0.6
	c0.5,0.1,1.1,0.1,1.6,0.2l-0.1,0c0,0,0,0,0.1,0c0,0,0,0-0.1,0l-0.1,0c-0.1,0-0.2,0-0.3,0c0.1,0,0.2,0,0.4,0c1.6,0.2,3.1,0.3,4.5,0.3
	c1.8,0,3.5-0.1,5.1-0.4c1.8-0.3,3.6-0.6,5.4-0.9l1-0.2c1.5-0.3,3-0.6,4.5-0.8l1.2-0.2c1.5-0.3,3.1-0.5,4.7-0.8
	c1.9-0.4,3.9-0.9,5.8-1.3c1.7-0.4,3.4-0.8,5.1-1.2c3.7-0.8,7.4-1.4,10.8-1.9c2.6-0.3,4.8-0.5,6.9-0.5c1.2,0,2.5,0.1,3.6,0.2
	c1.8,0.3,3.5,0.8,5.1,1.3c0.9,0.4,1.7,1,2.6,1.6c1.1,0.9,1.9,1.6,2.6,2.4c0.7,0.7,1.4,1.5,2.2,2.4c1,1.4,2,2.9,3,4.4
	c0.9,1.4,1.9,2.9,2.9,4.3l0.4,0.5c1.3,1.8,2.7,3.7,4.2,5.3c1.6,1.6,2.9,2.9,4.3,4.1c2.3,2,4.3,3.4,6.3,4.6c1.3,0.8,2.6,1.4,4,2
	l1,0.4l1.4,0.7c1.2,0.6,2.4,1.1,3.6,1.7c0.5,0.2,0.9,0.4,1.3,0.7c-0.1,0-0.1,0.1-0.2,0.1c-0.5,0.4-1.1,0.9-1.6,1.3
	c-1.5,1.1-3,2-4.5,2.7c-0.7,0.2-1.3,0.4-1.9,0.6c-0.2,0-0.4,0-0.5,0c-0.3,0-0.6,0-0.9,0c-1.1-0.2-2.1-0.4-3.2-0.7l-1.1-0.3
	c-1.1-0.2-2.3-0.4-3.4-0.6l-0.6-0.1c-1.5-0.2-3.1-0.5-4.6-0.8c-0.9-0.2-1.8-0.3-2.8-0.5c-1-0.2-2.1-0.4-3.1-0.5
	c-4.1-0.7-8.4-1.4-12.4-2.8c-1.3-0.6-2.5-1.3-3.7-2.2l-0.7-0.6c-1.5-1.3-3.1-2.6-4.9-3.5c-2.2-1.1-4.4-1.7-6.5-1.7
	c-0.4,0-0.9,0-1.3,0.1c-1.2,0.2-2.3,0.3-3.6,0.6c-0.4,0.1-0.9,0.3-1.3,0.4l-0.4,0.1c-2.9,1-5.7,2.4-8.4,3.6l-1,0.5
	c-0.9,0.3-1.7,0.6-2.6,0.9c-1,0.3-2.1,0.6-3.1,0.8l-0.5,0.1c-1.4,0.4-2.9,0.8-4.6,1.3c-0.5,0.2-1.1,0.3-1.6,0.5
	c-1.4,0.4-2.9,0.8-4.3,1.2c-0.3,0-0.6,0-0.9,0c-0.3,0-0.5,0-0.8,0c-1.7-0.3-3.3-0.9-5.5-1.7c-1.8-0.9-3.4-1.9-4.9-2.9
	c-3.3-2.2-6.4-3.5-9.5-4.2c-2.2-0.5-4.5-0.7-6.9-0.7c-3.6,0-7.4,0.6-11.2,1.6c-2,0.6-4,1.5-5.9,2.3l-0.3,0.1
	c-1.9,0.9-3.5,2.1-4.9,3.2c-0.8,0.7-1.6,1.8-2.1,2.6c-0.4,0.6-0.8,1.2-1.2,1.8c-1.3,2.2-2.3,4.5-3.6,7.2c-2.1,4.5-4.4,8.9-6.6,13.2
	l-0.6,1.1c-1.4,2.6-2.6,5.4-3.8,8.3c-1.1,2.7-1.8,5.2-2.2,7.8c-0.7,4.3-1,8.6-0.8,12.7c0.1,1.3,0.1,2.5,0.3,3.7
	c-0.7,0.1-1.5,0.3-2.5,0.4c-2.4,0.3-4.8,0.4-7.5,0.6c-5.4,0.2-10.6,1.3-15.5,3.1c-1.7,0.6-3.4,1.4-5,2.3c-1.5,0.8-2.9,1.9-4.2,2.9
	l-0.4,0.3c-1.9,1.5-3.8,3.3-5.8,5.5L452,372l-0.3,0.3c-0.7,0.8-1.3,1.6-1.9,2.4c-0.3,0.4-0.6,0.8-1,1.3c-2.1,2.7-3.8,5.3-5.1,8.1
	c-1.2,2.4-2.1,5-3,8.3l0,0.1l0,0.1c-0.2-0.5-0.5-1-0.7-1.4c-0.8-1.8-1.7-3.6-2.5-5.4l-0.2-0.4l-1.2-2.8l-0.5-1.2
	c-1.4-3.4-2.5-7-3-10.7c-0.7-5.9-0.9-10.7-0.4-15.1c0.4-2.6,1.1-5.1,2.2-7.7c1.1-2.5,2.3-4.6,3.7-6.5c0.9-1,1.8-2,2.9-3
	C441.9,337.5,443,336.7,444.2,335.8L444.2,335.8C444.2,335.8,444.2,335.8,444.2,335.8C444.2,335.8,444.2,335.8,444.2,335.8
	L444.2,335.8L444.2,335.8z M651,317l0.7-0.1c1.4-0.2,2.7-0.8,4-1.4l0.7-0.3c3.2-1.3,5.9-3.3,8.2-5.1c1-0.8,2.1-1.7,3.1-2.5l1.2-1
	c4.7-3.3,8.7-5.7,12.6-7.4c0.7-0.3,1.3-0.5,2-0.6h0.3l0.3,0c0.2,0,0.4,0.1,0.5,0.1c1.6,0.8,3,1.9,4.5,2.9l0.2,0.1
	c1.3,1,3.1,2.2,4.9,3.4c2.8,1.9,6.1,3.1,9.2,4.4l0.1,0.1c0.9,0.4,1.8,0.7,2.8,1c0.7,0.2,1.3,0.5,2,0.7c0.8,0.4,1.6,0.9,2.3,1.4
	c1.2,1,2.4,2,3.8,2.8c1,0.6,2.1,1,3.2,1.5l0.8,0.3c1.1,0.4,2.3,0.7,3.4,0.9c2.7,0.5,5.6,0.8,8.7,0.8l0.6,0c0.8,0,1.6,0,2.5,0
	s1.6,0,2.5,0c1.6,0,3.2,0.2,4.8,0.3c0.6,0.1,1.2,0.2,1.7,0.3c2.7,0.6,4.9,1.2,6.9,1.9c2.7,1.2,5.4,2.9,8.5,5.1l0.3,0.3l0.3,0.2
	c1.1,0.8,2.1,1.9,3.3,3.3c1.3,1.8,2.3,3.2,3.1,4.7c0.6,1.1,1.2,2.4,1.9,3.8c0.4,1.1,0.8,2.2,1.1,3.2c0.3,1,0.5,2.1,0.6,3l0.1,0.8
	c0.2,1.5,0.4,3.1,0.6,4.6c0.1,0.8,0.3,1.5,0.4,2.3c0.1,0.4,0.2,0.8,0.2,1.2c0,1.3-0.1,2.6-0.2,3.6c-0.1,1.2-0.2,2.1-0.3,3
	c-0.1,2.3,0.2,4.6,0.6,6.7c0.2,1.1,0.5,2.2,0.8,3.3c0.1,0.4,0.2,0.8,0.3,1.2c0.2,1,0.4,2,0.6,3.3c0.1,1.4,0.3,3,0.2,4.7
	c-0.2,0.8-0.4,1.7-0.8,2.7c-0.2,0.4-0.4,0.7-0.6,1c-0.2,0.2-0.4,0.4-0.7,0.7l-0.1,0.1c0.3-2.5,0.5-5.3,0.3-8.1
	c-0.3-3.2-1-6.5-2.3-10.7c-1.1-3.6-2.8-7-5-10.1c-0.8-1.2-1.7-2.3-2.5-3.3c-1-1.2-2.2-2.2-3.5-3.1l-0.6-0.4c-0.9-0.7-2-1.4-3.2-1.9
	l-1-0.4c-0.9-0.4-1.9-0.9-2.9-1.2c-1.5-0.6-2.7-0.9-3.8-1.3c-1.5-0.4-3.1-0.7-5-0.9c-0.5,0-1-0.1-1.6-0.1c-1.6,0-3.2,0.2-5,0.5
	c-1.3,0.2-2.6,0.7-3.8,1.1c-1.6,0.6-3.1,1.3-4.5,2c-1.1,0.6-2.2,1.3-3.1,2c-1.3,1-2.6,2-3.7,3.3c-2,2.3-3.5,4.4-4.7,6.5
	c-0.6,0.9-1.1,1.8-1.6,2.7c-0.5,0.8-1,1.7-1.5,2.5c-0.4,0.7-0.9,1.4-1.3,2.1l-0.8-0.3c-1.9-0.8-3.9-1.3-5.8-1.9
	c-1.4-0.4-2.8-0.8-4.2-1.2c-2.9-0.8-6-1.6-8.9-2.7c-1.2-0.6-2.4-1.3-3.5-2c-1.3-1.2-2.6-2.5-3.9-4.2c-0.3-0.4-0.5-0.7-0.8-1.1
	l-0.1-0.2c-0.7-0.9-1.3-1.7-2-2.5c-0.7-0.7-1.6-1.4-2.5-2c-1.9-1.4-4.3-2.2-6.4-2.8c-4.2-1.3-7.9-1.9-11.3-1.9c-0.6,0-1.1,0-1.7,0.1
	c-2.8,0.2-6,0.5-9.3,1.1c-2.7,0.4-5.2,0.9-7.6,1.7c-3.9,1.4-6.9,2.6-9.7,4c-0.8,0.4-1.7,0.9-2.5,1.4l-0.1,0
	c-3.8-0.1-7.2-0.4-10.5-0.7c-2-0.3-4-0.8-5.9-1.2c-1.9-0.4-3.9-0.9-5.9-1.2c-5.2-0.9-9.2-1.3-13-1.3c-2.5,0-4.7,0.2-6.9,0.5
	c-2.2,0.4-4.5,0.7-6.8,1.3c-2.2,0.6-4.3,1.3-6.2,2.2c-1.4,0.7-2.7,1.7-3.6,2.5c-1.2,1-2.3,2.1-3.4,3.6c-1.9,2.4-3.4,4.9-4.6,7.6
	c-0.7,1.6-1.3,3.2-1.9,4.8c-0.2,0.7-0.5,1.3-0.7,2c-1,2.2-1.9,3.9-2.9,5.4c-0.6,0.7-1.3,1.4-2,2c-1.8,1.3-3.9,2.4-5.9,3.4
	c-0.6,0.3-1.2,0.6-1.7,0.9c-1.8,1-3.8,1.9-6.3,3l0.1,0c0,0-0.1,0-0.1,0c0,0,0.1,0,0.1,0l0,0c-0.6,0.3-1.3,0.5-1.9,0.8
	c-2,0.9-3.6,1.7-5.1,2.5c-1.1,0.6-2.1,1.2-3.1,1.8c-1.2,0.7-2.4,1.4-3.6,2l-0.3,0.2c-0.9,0.5-1.9,1-2.9,1.6c-3,1.8-5.6,4.3-7.8,7.3
	c-1.5,2.1-2.9,4.3-4.4,6.7l-0.8,1.2c-1.1,1.7-2.2,3.4-3.2,5.2l-0.6,0.9c-1.2,1.9-2.3,3.9-3.6,5.8c-0.6,1-1.2,1.9-1.8,2.9
	c-0.7-0.5-1.3-0.9-1.9-1.2c-0.7-0.4-1.5-0.7-2.3-1c-0.7-0.3-1.3-0.7-1.8-1c-0.4-0.3-0.7-0.7-1-1c-0.4-0.6-0.7-1.2-1.1-1.8
	c-0.5-1.4-0.9-2.8-1.2-4.5c-0.3-2.9-0.6-6.1-0.4-9.2c0-0.2,0.1-0.4,0.1-0.6c0.1-0.2,0.2-0.3,0.3-0.5c0.5-0.5,1-1.1,1.7-1.6l0.9-0.7
	c1-0.8,2-1.5,3-2.3c2.6-2,4.6-4.5,6.2-6.7c4.1-5.5,6.1-11.9,7.5-17.4c0.4-1.6,0.6-3.3,0.8-5l0.1-1.1c0.2-1.4,0.2-3,0.1-4.4
	c-0.1-2.3-0.4-4.6-0.9-7c-0.1-0.6-0.2-1.2-0.3-1.7c-0.1-0.8-0.3-1.5-0.4-2.3c-0.2-2.1-0.4-3.8-0.4-5.5c-0.1-2.2,0-4.5,0.1-7.2
	c0.3-2,0.7-3.5,1.1-5c0.5-1.8,1.2-3.5,1.9-5.1c0.9-2,1.9-4,2.9-6c1.1-2.1,2.1-4.3,3.1-6.5c0.6-1.3,1.1-2.6,1.7-3.9
	c1.3-3.1,2.6-6.2,4.5-9.1c0.1-0.1,0.3-0.3,0.4-0.4c0.6-0.4,1.3-0.7,2.1-1.1c2.4-0.9,4.5-1.5,6.6-1.9c0.8-0.1,1.6-0.1,2.5-0.1
	c1,0,2,0.1,3.1,0.2c1.2,0.2,2.2,0.5,3.2,0.8c1.7,0.9,3.3,2,4.8,3.1c0.5,0.4,1,0.7,1.5,1.1c2.5,1.8,5.5,3,7.4,3.7
	c3.6,1.4,6.6,2,9.5,2c0.2,0,0.4,0,0.7,0c2.9-0.1,5.7-0.9,8.5-1.7l1-0.3c1.4-0.4,2.8-0.7,4.2-1.1c1.8-0.4,3.6-0.9,5.4-1.4
	c2.4-0.7,4.8-1.9,7.1-2.9c0.7-0.3,1.4-0.7,2.1-1c1-0.4,2.1-0.8,3.3-1.1c0.3,0.2,0.5,0.3,0.8,0.5c0.5,0.4,1,0.8,1.6,1.3
	c1.4,1.1,2.8,2.1,4.2,3c1.5,0.9,3.2,1.6,4.7,2.2c2.3,0.9,4.7,1.6,7.2,2.1c2.4,0.5,4.9,0.9,7.3,1.2c1.7,0.3,3.3,0.5,5,0.8
	c1,0.2,2.1,0.3,3.1,0.5c1,0.2,2,0.3,3.1,0.5c1.1,0.2,2.2,0.4,3.3,0.6c2.4,0.5,4.9,1,7.5,1.2c0.3,0,0.5,0,0.8,0
	C648.6,317.4,649.8,317.2,651,317L651,317L651,317z M363.5,882.5c-2.9-0.5-5.8-1.3-8.9-2.6c-8.6-3.8-16.6-8.5-24-14
	c-3-2.4-5.6-4.9-7.8-7.7c-3.7-5.1-6.4-10.9-8.5-15.8c-0.8-2-1.6-4-2.3-5.9l-0.4-1.2c-0.3-0.7-0.6-1.5-0.9-2.2
	c-0.6-1.5-1.2-3-1.7-4.5c-0.8-2.5-1.6-4.9-2.4-7.4c-0.2-0.5-0.4-1.1-0.5-1.6c-0.5-1.4-0.9-2.8-1.3-4.2c-0.8-2.9-1.5-5.8-2.2-8.7
	c-0.4-1.6-0.7-3.3-1-4.9l-0.3-1.5c-0.7-3.9-1.3-7.9-1.9-11.9l-0.2-2c-0.5-5-1-10.3-1.2-15.4c-0.2-5.5,0-10.3,0.5-14.9l0.4-3.2
	l0.3-2.8l1.5-9c0.4-2.3,0.9-4.6,1.4-6.8c0.2-1.1,0.5-2.2,0.7-3.3c0.4-1.9,0.8-3.9,1.2-5.8c0.8-3.5,1.5-7.2,2.2-10.8
	c0.2-1,0.4-2,0.6-3c0.5-2.8,1.1-5.7,1.4-8.6l0.6-4.6l0.6-5.4c0.2-2.1,0.4-4.2,0.5-6.3c0.1-0.9,0.1-1.7,0.2-2.6
	c0.6-0.5,1-1.1,1.4-1.7c1-1.7,1.3-3.8,0.8-5.7c-0.2-0.9-0.6-1.7-1.2-2.4l1-6.9l0.2-1.4c0.3-2.2,0.7-4.3,1.1-6.5
	c0.2-1,0.4-2.1,0.6-3.1c0.4-2.4,0.9-4.8,1.3-7.3l0.4-2c1.4-7.7,2.2-14.9,2.4-21.9c0.1-3,0-6.1,0-9.1c0-1.1-0.1-2.2-0.1-3.2
	c0-2.3-0.2-4.6-0.3-6.8l-0.1-2.1c-0.4-7.3-0.9-13.2-1.7-18.6c-0.7-4.8-1.4-8.7-2.3-12.3c-1.1-4.3-2.6-8.7-4.9-13.9
	c-2.4-5.6-5.2-10.9-8.4-15.8l-2-3.1l-2.1-3.2l-0.1-0.1c-4.7-7.2-9.6-14.7-13.2-22.8c-2.4-6-4.1-12.1-5-18.2
	c-0.7-6.6-0.7-13.1,0-19.3l0.5-3.8l0.5-3.9l0.9-4.8l0.9-4.9c0.2-0.9,0.4-1.8,0.6-2.6c0.1-0.4,0.2-0.8,0.3-1.3l0.2-1
	c0.4-1.8,0.8-3.7,1.2-5.5c0.5-2.2,1.1-4.4,1.7-6.5c0.2-0.9,0.5-1.7,0.7-2.6c1.8-6.7,3.7-12.6,6-18.1c5.3-12.2,12.5-23.6,19.5-34.7
	c1.8-2.9,3.8-5.9,5.7-8.7l1.6-2.3c1.6-2.4,3.3-4.8,5-7.1c0.6-0.9,1.3-1.8,1.9-2.7c2.5-3.2,4.7-5.7,6.9-8c2.6-2.7,5.5-5.4,9-8.1
	c5.3-4,11.1-7.8,17.7-11.6c6.4-3.6,13-6.9,19.3-9.9c0.2,0.3,0.3,0.7,0.5,1c1.8,3.8,3.5,7.4,5.1,11.2c1.1,2.7,2,5.2,2.7,7.6
	c0.8,2.7,1.4,5.6,2,9c1,8.9,1,18-0.1,27.2c-1,7-2.6,13.1-4.8,18.7c-2.1,4.8-4.9,9.7-8.5,15l-1.8,2.6c-1.1,1.6-2.2,3.2-3.3,4.9
	l-2.9,4.2l-2.9,4.2c-4.3,6.3-7.4,12.1-9.5,17.9c-1.2,3.2-1.8,6.9-2.1,11.9c-0.2,2.8-0.1,5.8,0.3,9.2c0.3,3,0.8,7,1.4,10.9l0,0.3
	c0.3,1.6,0.5,3.3,0.9,5c0.9,4.4,2.3,8.6,4.3,13c1.5,3.3,3.9,6.6,6.9,9.5c3.2,3,7.2,5.4,12.3,7.3c3.2,1.2,6.7,1.8,9.9,2.3
	c2.8,0.5,5.7,0.8,9.1,0.9c0,0,0,0,0,0l0,0l0,0l0,0.2l0,0l-0.1,0.4c-0.3,2.1-0.6,4.3-0.8,6.5l-0.1,0.8c-0.1,1.5-0.3,3-0.4,4.4
	c-0.3,3.4,0,6.9,0.8,10.8c0.7,3.5,2.2,6.9,3.5,9.8c0.9,1.9,2,3.9,3.6,6.4c1.5,2.4,3,4.8,4.5,7.2c5.2,8.1,9,17,12.7,25.7
	c1.4,3.5,2.9,7.1,4,10.8c0.7,2.2,1.2,4.3,1.8,6.5c0.4,1.5,0.6,3,0.9,4.5l0.1,0.8c0.2,1.3,0.3,2.4,0.4,3.6c0.1,2.1,0.2,4.3,0.3,6.6
	c0,2.3,0,4.5,0,6.6c0,1.4-0.2,2.8-0.3,4.2l-0.1,1.2c-0.3,2.3-0.7,4.4-1,6.4c-0.2,1.2-0.4,2.4-0.7,3.7c-0.3,1.3-0.5,2.7-0.7,4
	c-1.1,6-1.3,12.2-1.4,18l0,1.3c0,2.1-0.1,4.3,0,6.5c0.1,1.6,0.1,3.1,0.2,4.7c0.2,3.5,0.7,7.1,1.1,10c1.1,7.3,3.6,14.7,7.3,21.9
	c2.2,4.3,5.1,8.3,8.1,12.4c3.1,4.2,6.7,8.8,11.2,14.3c1.5,1.8,3,3.6,4.6,5.3l0.8,0.9c4.2,4.8,9.7,9.1,16.4,12.8
	c3.6,2,7.5,3.6,10.8,5c3.7,1.5,7.4,2.6,11,3.3c2.2,0.4,4.5,0.7,6.7,0.8c0.3,0,0.7,0,1,0c1.8,0,3.6-0.2,5.4-0.5
	c3.8-0.6,7.6-1.9,11.6-4.3c1.6-0.9,3.1-2,4.5-3.1l0.7-0.6c0.9-0.7,1.8-1.3,2.6-2l1.9-1.6l2.3-2c1.5-1.2,3-2.4,4.4-3.7l1.6-1.3
	c4.4-3.3,8.2-5.6,12-7.4c2.7-1,5.6-1.7,8.9-2.3c2-0.2,4-0.3,6.1-0.3c2.4,0,4.9,0.1,7.5,0.4c1.9,0.3,3.8,0.7,5.8,1.2
	c1.8,0.4,4.1,1,6.3,1.9l2.1,0.8l2,0.8l0.3,0.1c1.9,0.9,3.9,1.8,5.8,2.9c2.4,1.3,4.8,2.7,7.9,4.6c1.3,0.8,2.5,1.6,3.8,2.4l0.3,0.4
	c0.6,0.7,1.3,1.3,1.9,1.9l0.3,0.3l0.3,0.2c1.1,1,2.2,2,3.5,2.8c1.1,0.7,2.3,1.2,3.6,1.8c0.3,0.1,0.6,0.3,0.9,0.4
	c0.6,0.3,1.2,0.5,1.8,0.8l0.3,0.1c0.7,0.3,1.3,0.5,2,0.8c1.3,0.5,2.6,1.1,3.8,1.6c0.7,0.3,1.3,0.5,2,0.8c0.4,0.1,0.8,0.3,1.2,0.4
	c1.4,0.6,2.8,1.3,4.1,1.9l0.3,0.1c1.1,0.5,2.2,1,3.4,1.4c0.7,0.3,1.6,0.6,2.4,0.9c1.9,0.5,3.8,0.9,5.4,1.2l0.4,0.1
	c1.9,0.4,3.9,0.8,5.8,0.9c0.3,0,0.6,0,0.9,0c1.6,0,3.2-0.2,5-0.7c0.6-0.1,1.1-0.4,1.6-0.6l0.5-0.2c1-0.4,2-0.8,3-1.4
	c0.4-0.1,0.8-0.1,1.2-0.2c0.7-0.2,1.4-0.5,2-0.8c0.2-0.1,0.5-0.2,0.7-0.3c0.5-0.2,1-0.5,1.5-0.8l0.9-0.5c0.6-0.3,1.2-0.7,1.8-1
	c0.7-0.4,1.4-0.7,2-1.1c0.4-0.2,0.7-0.4,1.1-0.6c1-0.5,1.8-1.2,2.7-1.8l0.8-0.6c1-0.8,2.1-1.5,3-2.4c0.8-0.6,1.4-1.4,2.1-2.3
	c0,0,0,0,0,0c0.8,0.6,1.6,1.1,2.5,1.7c0.8,0.6,1.6,1.1,2.4,1.7c1.2,0.8,2.4,1.6,3.5,2.4c0.9,0.8,1.8,1.6,2.8,2.4l1.9,1.5
	c3.2,2.5,6.4,5.1,9.9,7.4c1.9,1.6,3.9,3.2,5.8,4.8c2.5,2.1,5.7,4.7,9.2,7.2c2.1,1.5,4.5,2.8,7.6,4.2c0,0-0.1,0.1-0.1,0.1
	c-0.3,0.3-0.7,0.6-1,0.9c-1.1,1.1-2.2,2.4-3.2,3.7c-1.7,2.1-3.1,4.2-4.4,6.4c-1,1.6-1.8,3.1-2.7,4.7c-1.6,3-3.1,6.5-4.6,10.9
	c-1.9,5.3-3.1,10.9-4.3,16.3c-0.2,1.1-0.5,2.2-0.7,3.3c-1.8,8.2-3.7,14.6-6,20.4c-1.9,4.4-4.1,8.1-6.5,11.6c-2.5,3-5.5,5.9-9.2,8.9
	c-2.1,1.6-4.3,3.1-6.4,4.6l-1.4,1c-4.9,3.4-10,6.3-15.3,8.7c-5,2-10.5,3.4-16.4,4.3c-4.1,0.5-8.2,0.7-12.2,0.7
	c-3.8,0-7.7-0.2-11.4-0.7c-3.9-0.6-7.8-1.5-11.6-2.5c-1.7-0.5-3.3-1-4.9-1.6l-1-0.3c-2.9-1-5.9-2.1-9.1-3.3
	c-1.4-0.6-2.9-1.1-4.3-1.7c-4.2-1.6-8.6-3.3-12.9-4.8l-1.7-0.6c-2.4-0.9-5-1.7-7.5-2.5l-1.2-0.4c-2.7-0.8-5.4-1.7-8.2-2.5
	c-3.3-1-6.6-2-9.8-3c-3.2-1-6.4-2.2-9.3-3.2c-3.1-1.1-6.2-2.4-9.2-3.7l-0.2-0.1c-0.2-0.1-0.5-0.2-0.7-0.3l-0.7-0.3
	c-11.9-5.4-24.3-11-37-15c-9.4-2.9-18.7-4.7-27.5-5.2c-1-0.1-2-0.1-3.1-0.1c-3.2,0-6.7,0.3-10.9,0.8c-4.5,0.6-9,1.6-13.6,3.1
	c-4.2,1.4-8.4,3.2-13,5.5c-3.9,2-7.7,4.4-11.3,6.8l-0.9,0.6c-1.8,1.1-3.6,2.3-5.3,3.4l-3.1,2c-3.7,2.4-7.8,4.6-12.5,6.6
	c-6.7,2.7-13,4.5-19,5.5c-1.7,0.2-3.4,0.3-5,0.3C365.9,882.7,364.7,882.6,363.5,882.5L363.5,882.5L363.5,882.5z M872.3,335.6
	c0.7-0.1,1.5-0.2,2.2-0.2c0.5-0.1,1-0.1,1.6-0.2c1.4-0.1,2.6-0.2,3.6-0.2c0.4,0,0.9,0,1.3,0c2.2,0.5,4.4,1.3,6.6,2l0.4,0.1l0.9,0.3
	c1.6,0.6,3.2,1.1,4.8,1.8c3.1,1.5,6.1,3.5,8.6,5.3c3,2.4,5.5,4.8,7.5,7.3c3,4.3,5.2,9.2,7.3,13.9l0.1,0.1c1.2,3,2,5.9,2.6,8.7
	c0.2,1,0.4,2.1,0.5,3.1l0.1,0.6c0.5,4.2,0.9,7.7,1,11.1c0.3,4.4,0.4,8.8,0.5,12.2c0.3,8,0,15.8-0.9,23.3c-0.4,2.5-0.7,4.8-1.1,6.9
	c-0.4,2.3-0.9,4.6-1.5,6.9c-0.6,2.3-1.5,4.7-2.4,6.9l-0.1,0.3c-1.1,2.8-2.2,5.6-3.3,8.3c-1,2.5-2.1,5-3.1,7.6
	c-1.2,3-2.1,6.4-2.8,10.4c-0.8,4.3-1.2,8.8-1.1,13.4c0,1.5,0.1,3,0.2,4.5l0,0.6l0.1,1c0,0.9,0.1,1.8,0.2,2.6
	c0.4,3.4,0.8,7.1,1.4,10.6c0.5,2.9,1.1,5.7,1.6,7.9c1.5,6.8,3.5,13.5,5.9,20c0.7,2,1.5,3.9,2.3,5.9c2.5,6.3,5.1,12.9,6.3,19.7
	c0.6,5.8,0.2,11.7-0.3,16.1c-0.3,2.8-0.6,5.8-1,9.1l-0.1,0.3c-1.1,6.8-2.3,13.9-4.9,20.4c-1.1,2.3-2.2,4.3-3.3,6
	c-1.3,1.5-2.6,2.8-4.1,4c-2.3,1.6-4.7,3-7.3,4.2c-3,1.1-6.1,2-9.5,2.6c-1.4,0.2-2.9,0.5-4.3,0.7l-1.8,0.3c-7.1,1.2-12.6,3.1-17.1,6
	c-2.9,1.9-5.8,4.4-8.3,7.3c-2.7,3.2-5,6.8-7,10.2c-1.2,2.1-2.3,4.1-3.6,6.5c-2.6,4.9-5.3,9.8-7.9,14.7c-2.3,4.3-5,9.2-7.3,14.3
	c-3.6,7.8-6.9,15.9-10.1,23.7l-1.5,3.7l-1.2,2.7c-1.1,2.6-2.3,5.3-3.5,8l-1,2.4l-1.1,2.7c-0.1,0.3-0.3,0.7-0.4,1
	c-0.4,0.9-0.8,1.8-1.1,2.7l-0.8,2.2c-0.9,2.6-1.8,5.2-2.6,7.9c-0.3,1-0.6,2-0.9,3c-1.4,4.8-2.8,9.7-4.7,14.4c-1.6,3.5-3.1,6.4-5,8.9
	c-1.7,2.1-3.6,3.9-5.5,5.6c-3.9,2.9-8.4,5.4-13.8,7.8c-6.1,2.4-12.1,4.1-18,5c-0.6,0.1-1.3,0.1-1.9,0.2c-2.7-0.5-6.1-1.1-9.6-1.4
	c-2.3-0.2-4.3-0.4-6.3-0.6c-2.7-0.5-5.1-1.1-7.1-1.9c-1.7-0.7-3.4-1.4-5.1-2.1c-1-0.5-2-1.1-3-1.8c-0.6-0.5-1.2-1.1-1.8-1.6
	l-0.2-0.2c-1.3-1.2-2.9-2.3-4.5-3.3c-0.7-0.4-1.5-0.8-2.2-1.1c-0.3-0.1-0.6-0.3-0.9-0.4c-1.3-0.6-2.3-1.2-3.2-1.8
	c-1.3-0.8-2.5-1.7-3.8-2.5l-2.1-1.4c-1.8-1.2-3.5-2.4-4.9-3.5c-3.2-2.5-6.5-5.2-9.4-8.5c-1-1.4-1.8-2.9-2.6-4.6l-0.9-2.2l-0.4-0.9
	c-0.6-1.5-1.3-3-2-4.5c-0.6-1.2-1.1-2.5-1.6-3.7c-0.5-1.2-0.9-2.3-1.4-3.5c-0.3-0.7-0.6-1.4-0.9-2.1c0-1,0-2,0-3c0-2.7,0-5.3-0.1-8
	l0-1.6c-0.1-2.2-0.1-4.4,0-6.6c0.2-0.8,0.4-1.6,0.6-2.3c0.2-0.4,0.4-0.8,0.7-1.1c0.5-0.6,1-1.1,1.6-1.6c1.2-0.8,2.6-1.6,4.1-2.3
	c3.6-1.4,7.4-2.4,11.5-3.2l1.3-0.2c2-0.4,4.1-0.8,6.2-1.1c3.2-0.4,6.5-0.6,9.8-0.6c2.7,0,5.5,0.1,8.4,0.4l2.1,0.2
	c2,0.2,4.1,0.3,6.1,0.5l2.5,0.2l2.5,0.2c1,0.1,2,0.1,3.1,0.1c2.1,0,4.2-0.1,6.6-0.4c4-0.4,7.8-1.1,11.5-2.2c3.8-1.1,7.8-2.6,12.6-5
	c3.2-1.6,6.5-3.6,9.8-5.9c3.3-2.4,6.6-5.3,10-8.8c1.5-1.5,2.9-3.1,4.3-4.6l1.1-1.2c1.9-2,3.8-4.2,6.1-6.8
	c4.8-5.4,8.6-11.3,11.2-17.4c1.5-3.4,2.4-6.2,3.1-9c0.7-3.1,1-6.5,1-10.1c0-3-0.4-6.2-1-9.4c-0.6-2.8-1.8-5.6-2.7-7.9
	c-0.9-2.2-1.9-4.2-2.9-6.2c-0.6-1.2-1.3-2.4-2-3.6c-0.3-0.5-0.6-1-0.8-1.5c-2-3.5-4.2-7.4-6.2-11.2c-0.9-1.8-1.8-3.5-2.7-5.3
	c-1-2-2-4.1-3.1-6.1c-0.8-1.5-2.1-2.6-3.8-3.3c0,0,0.1-0.1,0.1-0.1c0.5-0.4,1-0.9,1.4-1.3c0.6-0.6,1.2-1.1,1.9-1.6l0.7-0.6l0.1-0.1
	c0.6-0.5,1.1-1,1.6-1.5c1.4-1.4,2.7-3,3.7-4.4c0.7-1,1.5-2.1,2.2-3.1c1.4-2.1,2.6-4.6,3.8-8c0.9-2.5,1.6-5.4,2.2-8.6
	c0.7-3.9,1.1-6.8,1.2-9.6c0.1-2.6,0-5.1-0.3-7.7c-0.2-2.1-0.6-4.6-1.5-6.9c-0.5-1.2-1-2.4-1.4-3.6c-0.9-2.2-2-4.7-2.9-7.3
	c-1.3-3.3-1.9-6.9-2.4-10c-0.3-2.9-0.5-5-0.6-7.1c-0.1-2.4,0.1-4.7,0.4-7.5c0.3-1.7,0.6-3.5,1.1-5.8l0.2-0.8
	c0.4-1.8,0.7-3.6,1.2-5.4c0.4-1.5,0.8-3,1.3-4.4c0.1,0.1,0.2,0.1,0.3,0.2c1.2,0.6,2.5,1,3.8,1c1.4,0,2.7-0.4,3.9-1
	c2.4-1.4,4.8-2.5,6.9-3.4c4.7-1.9,9.7-3.8,15.3-5.9c1-0.4,2-0.8,3.1-1.2c0.5-0.2,1.1-0.4,1.6-0.6c1.3-0.5,2.6-1,3.9-1.6l4.4-2.1
	c0.9-0.4,1.8-1,2.7-1.5c0.4-0.3,0.8-0.5,1.3-0.8c0.8-0.5,1.6-1,2.4-1.6c0.4-0.3,0.8-0.5,1.1-0.8c1.2-0.8,2.3-1.7,3.4-2.6
	c0.5-0.4,0.9-0.8,1.4-1.1c2.6-2.1,5.2-4.5,8.2-7.8c5.7-6.2,10.3-13.2,13.5-20.8c1.8-4.3,3.1-8,3.9-11.6c1-4.3,1.4-9,1.2-13.4
	c-0.3-5.2-1.4-10.7-3.4-16.2c-1.7-4.7-3.8-9-6.2-12.9c-0.3-0.5-0.6-1-1-1.6c-0.6-1.1-1.3-2.1-2-3.2l-3.2-4.6c-1-1.4-2.1-2.8-3.2-4.1
	c-0.5-0.6-1-1.2-1.4-1.8c-0.8-1-1.6-1.9-2.4-2.8c-0.4-0.4-0.8-0.9-1.2-1.3c-2-2.3-3.9-4.7-6-7.2l-0.1-0.1c0.9,0.1,1.8,0.1,2.6,0.1
	C870.7,335.7,871.5,335.7,872.3,335.6L872.3,335.6L872.3,335.6z M782.2,354.9l0.8,0c0.5,0,0.9,0,1.4,0c0.9,0.2,1.7,0.5,2.5,0.7
	c0.7,0.2,1.4,0.5,2.1,0.6l0.7,0.2c1.3,0.3,2.5,0.6,3.7,1.1c1.7,0.8,2.9,1.4,4,2.1l0.2,0.2c0.4,1.3,0.6,2.7,0.8,4.1
	c0.1,0.9,0.2,1.7,0.3,2.5c0.1,0.6,0.2,1.2,0.3,1.8c0.5,3.4,1.1,6.1,2,8.7c1,3,2.5,5.9,4,8.8c1.5,2.9,3.2,5.8,6,7.6
	c0.9,0.6,2,1.1,2.9,1.3c1.1,0.4,2.3,0.5,3.4,0.6l0.2,0c0.5,0.1,1.1,0.1,1.6,0.1c0.1,0.4,0.1,0.9,0.2,1.3c0.3,3,0.6,6.1,0.7,9.5
	c0.2,3.3-0.1,6.7-0.5,9.8c-1.5,10.2-4.2,20.1-7.8,29.2c-0.7,1.6-1.4,3.2-2.2,4.7l-1,2.1c-1.1,2.5-2.1,5-3.1,7.5l-0.2,0.5l-0.4,1.1
	c-0.8,2-1.6,4.1-2.2,6.3c-0.7,2.4-1.3,4.8-1.9,7.7l-0.3,1.4c-0.5,2-0.9,4-1.3,6c-0.5,3.2-1,6.1-1.1,9c-0.3,6.8,0,12.2,0.8,16.9
	c0.5,2.7,1.2,5.5,2.2,8.8c0.3,0.9,0.6,1.9,0.9,2.8c0.8,2.3,1.5,4.7,2,7.1c0.2,2,0.3,3.8,0.3,5.7c0,1.9-0.2,3.7-0.3,5.4
	c-0.7,4.5-1.6,8.3-2.8,11.6c-0.9,1.9-2.1,3.8-3.6,5.8c-1.4,1.6-3,3-4.6,4.4l-0.3,0.3c-1.4,1.3-2.8,2.6-4.1,4
	c-0.4,0.4-0.9,0.9-1.3,1.4c-0.2,0.2-0.4,0.5-0.6,0.7c-1.7,1.9-3.2,4.1-4.4,6.4c-0.7,1.3-1.3,2.7-1.9,4c-0.3,0.6-0.5,1.2-0.8,1.8
	c-1.3,2.9-3.2,5.6-5,8.1c-0.7,1-1.4,1.9-2.1,2.9c-2.1,3.1-3.5,6.5-4.8,9.9l-0.3,0.6c-1,2.2-2.1,4.5-3.5,6.6c-0.9,1-1.8,2-2.9,2.9
	c-0.6,0.3-1.2,0.6-2,1c-0.6,0.3-1.3,0.5-1.9,0.8l-1.7,0.7c-1.4,0.6-2.9,1-4.3,1.4l-0.5,0.2c-0.7,0.2-1.4,0.4-2.1,0.6
	c-0.8,0.2-1.5,0.4-2.3,0.6c-1.4,0.4-2.7,0.7-4.1,1c-0.9,0.1-1.8,0.1-2.8,0.1c-1.4,0-2.9-0.1-4.5-0.3c-1.1-0.2-2.1-0.3-3.2-0.5
	c-1.5-0.2-3-0.5-4.5-0.7c-1.8-0.2-3.9-0.5-5.9-0.7c-0.7,0-1.4-0.1-2.1-0.1c-0.8,0-1.5,0-2.3-0.1l-0.9-0.1c0.5-0.2,0.9-0.3,1.4-0.5
	c1.8-0.7,3.6-1.4,5.4-2c1.4-0.5,2.7-1.1,4.1-1.6c1.1-0.4,2.1-0.8,3.2-1.2c2-0.8,4.1-1.5,6.2-2.2l1.3-0.4c3.6-1.2,6.5-2.3,9.2-3.5
	c3.2-1.4,6.1-3.2,8.6-5.6c1.2-1.1,2.3-2.6,3.2-3.9c1.1-1.5,1.7-3.4,2.3-5.2c0.7-2.2,0.9-4.6,1.1-6.7c0.2-2.7-0.3-5.4-0.8-7.4
	c-0.3-1.5-0.9-2.9-1.4-4.3c-0.2-0.4-0.3-0.9-0.5-1.3c-0.5-1.5-1-3-1.3-4.6l-0.2-0.8c-0.3-1.4-0.5-2.9-0.9-4.4
	c-0.3-1.3-1.1-2.5-2.3-3.4l0.3-0.8c0.5-1.3,1.1-2.7,1.5-4.2c1.8-5.3,2.5-11,3.1-16.4c0.1-1.4,0.2-2.9,0.3-4.3
	c0.1-1.1,0.1-2.3,0.2-3.4c0.2-2.1,0.4-4.3,0.7-6.9c0.6-3.7,1.4-7.4,2.1-11l0.1-0.3c0.3-1.4,0.5-2.8,0.8-4.2c0.5-2.8,1-5.7,2-8.5
	c0.2-0.4,0.4-0.7,0.6-1.1c1-1.1,2.1-2.1,3.1-3c0.5-0.4,1-0.9,1.5-1.3c1.9-1.8,3.7-3.9,5.4-6.4c1.2-1.8,2.2-3.7,3.2-5.8
	c0.7-1.5,1.5-3.1,2.2-4.6l0.3-0.6c0.7-1.6,1.5-3.2,1.9-4.9c0.5-1.7,0.8-3.4,1-5.2c0.3-2.1,0.1-4.4-0.5-7.1c-0.3-1.2-0.8-2.5-1.3-3.6
	c-0.5-1-0.9-1.9-1.5-2.8c-1.4-2.2-3.4-4-6.3-6c-0.9-0.6-1.9-1.2-2.9-1.7c-0.8-0.4-1.7-0.9-2.5-1.4c-0.6-0.6-1.2-1.2-1.9-2.1
	c-0.9-1.3-1.8-2.7-2.9-4.3c-0.3-0.4-0.5-0.8-0.8-1.2c-0.9-1.4-1.9-2.9-2.7-4.5c-0.4-1.3-0.8-2.6-1-4c-0.1-1.4-0.1-2.8,0-4.2
	c0.5-2.7,1.4-5.2,2.2-7.2c1.3-2.8,2.4-5.4,3.4-8.1c0.7-2,1.7-4.7,2.1-7.4l0.1-0.9c0.9-0.1,1.9-0.2,2.8-0.4c0.9-0.2,1.8-0.6,2.7-1
	c1.5-0.7,3-1.7,4.1-3c2.9-3.3,4.7-7.6,4.9-11.9c0.1-2.7-0.4-5.5-0.8-7.8c-0.2-1.1-0.5-2.3-0.7-3.4c-0.3-1.1-0.5-2.2-0.7-3.4
	c-0.1-1.2-0.1-2.4,0-3.6c0.2-0.9,0.4-1.8,0.6-2.8c0.2-1,0.5-2.1,0.7-3.1l0.1,0H782.2L782.2,354.9L782.2,354.9z M545.3,589.6
	c-1.3-0.2-2.4-0.5-3.5-0.8c-0.4-0.2-0.9-0.5-1.3-0.8c-1.2-1-2.3-2.1-3.3-3.1c-1.1-1.1-2.4-2.4-3.7-3.8c-1.1-1.6-2.1-3.4-3.1-5.5
	c-1-2.9-1.6-6-2.2-9c-0.2-1.2-0.5-2.4-0.7-3.5c-1.2-5.6-3-10.2-5.4-14.2c-2.4-3.9-5.5-7.6-9.3-11.3c-1.5-1.5-3.2-2.9-5-4.3
	c-0.4-0.3-0.8-0.6-1.2-1c-1.6-1.2-3.3-2.5-4.6-4.1c-0.6-0.9-1.2-1.9-1.7-3c-0.2-0.5-0.3-0.9-0.4-1.4c-0.2-2.3-0.1-4.9,0.2-7.8
	c0.8-4.7,2.2-9.5,3.5-14.1l0.1-0.5c0.3-1.2,0.7-2.5,1.1-3.7c0.4-1.4,0.8-2.8,1.2-4.1c0.7-2.5,1.2-5.1,1.7-7.4c0.6-3.2,1.3-6.5,2-9.7
	c0.4-1.9,0.8-3.9,1.2-5.8c0.6-2.7,1-5.7,1.3-8.9c0.3-2.8,0.1-5.8-0.6-8.8c-0.5-2.1-1.4-4-2.2-5.9c-0.2-0.4-0.4-0.8-0.6-1.3
	c-0.2-0.5-0.5-1-0.7-1.5c-0.5-1.2-0.8-2.4-1.1-3.6c0-0.7,0-1.3,0-2c0.3-1.6,0.9-3,1.4-4.3l0.2-0.5c0.4-0.8,0.8-1.6,1.2-2.4
	c0.8-1.4,1.6-2.6,2.3-3.8c1.6-2.5,3.2-5,4.3-6.9c2.5-4,5.2-8.4,8.3-12.5c0.9-1.1,1.9-2.1,2.9-3c1.6-1.1,3.2-2,4.9-2.9l0.6-0.3
	c1.3-0.7,2.6-1.5,3.9-2.3c0.5-0.3,1-0.6,1.5-0.9c1.7-1,3.5-1.9,5.4-2.8c0.9-0.4,1.9-0.8,2.8-1.2c0.9-0.4,1.8-0.8,2.7-1.2
	c1.7-0.8,3.3-1.7,4.9-2.6l0.7-0.4c1.2-0.7,2.4-1.3,3.5-2.1c2.2-1.4,4.1-3.2,6-5.6c2.7-3.5,4.3-7.8,5.7-11.8c0.2-0.7,0.5-1.3,0.7-2
	c0.8-1.7,1.7-3.3,2.8-4.7c0.9-1.1,1.8-2.1,2.8-2.9c0.7-0.4,1.3-0.8,2-1.2c3.3-1.2,6.9-1.7,10-2.2c1.6-0.2,3.2-0.2,4.9-0.2
	c1,0,2,0,3,0.1c1.4,0.1,2.9,0.2,4.3,0.3c2.4,0.2,4.9,0.4,7.6,0.8l0.6,0.1c2.8,0.4,5.7,0.8,8.6,1l0.7,0c-0.1,0.1-0.2,0.2-0.3,0.4
	c-0.6,0.7-1.2,1.6-1.9,2.6c-2.6,3.7-4.9,7.6-7.2,11.5l-1.3,2.2c-1.6,2.6-3.1,5-4.8,7.3c-2,2.4-4.2,4.7-6.6,7
	c-2.6,2.5-4.8,4.4-6.8,6.1c-1.5,1.1-2.9,1.9-4.3,2.6c-1.2,0.4-2.3,0.7-3.5,1.1c-1,0.3-2.1,0.6-3.1,0.9c-2.9,1-5.1,2-7,3.2
	c-2.6,1.7-4.7,4.1-6.6,7.4c-1,1.9-2,3.9-2.7,5.6l-0.5,1.2c-0.9,2.1-1.9,4.3-2.8,6.5c-0.8,2.2-1.6,4.3-2.3,6.4
	c-0.8,2.4-1.1,4.9-1.5,7.5l0,0.3c-0.2,1.4-0.4,2.8-0.5,4.2c-0.2,3.3,0.2,6.9,1.2,9.9c0.6,1.8,1.5,3.5,2.3,5.1c0.4,0.7,0.8,1.4,1.2,2
	c-1.4,1.9-2.6,3.8-3.7,5.7c-0.6,1.2-1.2,2.5-1.7,3.7l-0.2,0.6c-0.5,1.2-0.9,2.2-1.1,3.1c-0.9,3.1-1.3,6.1-1.2,9
	c0.1,1.5,0.3,3.2,0.7,5.1l0,0.1c0.1,0.6,0.2,1.1,0.4,1.7c0.4,1.6,1,3.2,1.6,4.7c0.3,0.8,0.6,1.5,0.8,2.3c0.3,1,0.7,2,1,3.2
	c0.1,0.5,0.3,1.1,0.4,1.8c0.2,2.2,0.4,4.8,0.4,7.4c0,2.2-0.2,4.5-0.5,7.5c-0.4,4.9-0.6,10.1-0.4,15.8c0.2,5.6,0.5,11.6,2,17.2
	c0.8,2.8,1.9,5.7,3.6,8.9c0.4,0.8,0.9,1.6,1.4,2.5l0.3,0.6c0.9,1.6,2.1,3.3,3.7,5.2c0.7,0.8,1.4,1.6,2.2,2.3c-0.1,0-0.1,0-0.2,0.1
	c-0.7,0.3-1.4,0.7-2,1c-1.3,0.8-2.6,1.7-3.8,2.6l-0.2,0.1c-3,2.2-5.8,4.6-8.2,7c-2,1.9-3.6,4.2-5.2,6.5c-0.4,0.5-0.7,1-1.1,1.5
	c-0.3,0.4-0.6,0.7-1,1c-0.3,0-0.7,0-1,0C546.1,589.6,545.7,589.6,545.3,589.6L545.3,589.6L545.3,589.6z M686.2,527.5
	c0.5-0.2,1.1-0.3,1.6-0.5c1.5-0.5,3.1-1,4.7-1.3c1.8-0.3,4-0.6,6.3-1.2l1.2-0.3c1.9-0.5,3.9-1.1,5.9-1.7c3.3-1.2,6-2.5,8.1-4
	c1.8-1.2,4.2-3,6.2-5.1c2.3-2.4,4.2-5.3,5.6-8.8c0.8-1.9,1.6-3.7,1.9-5.8c0.4-2,0.5-3.7,0.5-5.2c0-1.2,0-2.5-0.2-3.8
	c-0.4-3-0.8-6.2-1.3-9.3c-0.8-5.1-2-10.2-3.5-15.5c-0.3-1.1-0.6-2.1-0.9-3.2l-0.6-1.9c-0.4-1.4-0.8-2.9-1.1-4.6
	c-0.3-4-0.3-7.9,0.2-12c1.2-6.7,3-13.1,5.4-19c0.7-1.6,1.5-3.2,2.3-4.7c1.7-3.4,3.5-7,4.8-10.7c0.5-1.3,0.8-2.7,1-4.5
	c0.2-1.3,0.3-2.5,0.4-3.8c0-1-0.1-2.1-0.3-3.1l-0.1-0.7c-0.5-3.7-1.9-7-3.2-9.7c-1.2-2.6-3.1-4.9-4.9-7.1l-0.2-0.2
	c-0.8-0.9-1.5-1.9-2.3-2.8c-0.8-1-1.6-1.9-2.4-2.7c0.2-0.3,0.5-0.7,0.7-1c0.8-1.2,1.5-2.5,2-3.5c0.2-0.5,0.5-0.9,0.7-1.4
	c0.9-1.7,1.9-3.4,3-5.1c0.7-0.8,1.4-1.5,2-2.1c1.1-0.7,2.2-1.3,3.4-1.9c1.5-0.5,2.8-0.9,4-1.2c0.4,0,0.8,0,1.2,0c0.3,0,0.7,0,1,0
	c2,0.4,3.8,1,5.3,1.5c1.5,0.7,2.6,1.2,3.6,1.9c0.7,0.6,1.3,1.3,2.1,2.3c1.5,2.1,2.5,3.8,3.4,5.6c0.9,2.5,2,5.5,2.5,8.5
	c0.2,2.4,0,4.9-0.1,7.3l-0.1,0.8c-0.1,1.8-0.3,3.7-0.5,5.4c-0.3,2-0.8,3.9-1.3,5.8c-0.5,2-1.3,3.9-1.9,5.5l-0.5,1.2
	c-1.2,2.7-2.4,5.5-3.3,8.4c-1.1,3.9-1.5,7.8-1.2,11.4c0.3,2.6,0.7,4.8,1.4,6.8c0.6,1.7,1.4,3.5,2.6,5.6c1.9,3.1,3.4,5.4,4.9,7.5
	c0.7,1,1.5,2,2.2,2.9c1.2,1.5,2.6,2.8,4.3,3.9c0.9,0.6,1.8,1.2,2.7,1.7c0.8,0.5,1.7,1,2.5,1.6c0.5,0.5,1,0.9,1.5,1.5
	c0.4,0.6,0.7,1.2,1.1,1.8c0.3,0.8,0.5,1.6,0.7,2.4c0,0.9,0,1.7-0.1,2.7c-0.4,1.9-0.8,3.6-1.4,5.2c-0.5,1.5-1.1,3-1.9,4.9
	c-0.9,1.9-2,4.1-3.4,6.1c-1.2,1.4-2.6,2.8-4.2,4.2l-0.2,0.1c-1.3,1.2-2.6,2.3-3.6,3.6c-1.1,1.3-1.9,2.6-2.5,4.1
	c-0.4,0.9-0.7,1.8-1.1,2.8c-0.9,2.3-1.5,4.8-2.1,7.2c-0.3,1.2-0.6,2.3-0.9,3.5c-1,3.4-1.8,7-2.4,11.2c-0.7,4.1-1.3,8.4-1.9,13.2
	c-0.2,1.1-0.3,2.1-0.5,3.2c-1.2,6.5-2.9,12.6-5.2,18.3c-1.1,2.4-2.2,4.3-3.3,6.1c-1,1.1-2.1,2.2-3.3,3.2c-1.2,0.8-2.3,1.5-3.5,2.1
	c-1.5,0.6-3.1,1.1-4.7,1.6c-1.5,0.5-3.1,1-4.6,1.4c-1.6,0.4-3.2,0.8-4.8,1.1c-1.5,0.3-3.1,0.7-4.7,1.1c-1.9,0.5-3.8,1.1-5.7,1.7
	c-1.3,0.4-2.6,0.8-3.9,1.2c-1.8,0.5-3.4,1-5,1.5c-1.5,0.5-2.9,1.1-4.3,1.8l-0.7,0.3c-2.1,0.8-4.3,1.6-6.5,2.4l-2.1,0.7l-1.5,0.5
	c-3.5,1.3-7,2.6-10.8,3.2c-1,0.1-2.1,0.1-3.1,0.1c-1,0-2,0-3-0.1c-1.6-0.3-3-0.7-4.4-1.2c-4.3-2-8-4.7-11.8-7.6
	c-1.8-1.4-3.2-2.7-4.4-3.9c-1.3-1.3-2.5-2.8-3.6-4.1c-1.2-1.7-2.2-3.2-2.9-4.8c-0.5-1.2-0.8-2.4-1-3.6c-0.1-1.5-0.1-3.1,0-5.1
	c0.4-0.3,0.9-0.5,1.4-0.7c2.2-0.9,4.5-1.5,7-2.1c1-0.2,2.1-0.4,3.2-0.6c1.3-0.2,2.6-0.5,3.9-0.8c4.3-1,8.9-2.3,13-4.7
	c1.7-1,3.2-2.3,4.8-3.8c0.8-0.7,1.6-1.5,2.6-2.6c1-1,2-2.2,3-3.3c0.9-1,1.7-2,2.6-3.2c1.4,0.7,2.8,0.8,4.1,0.9c0.1,0,0.2,0,0.4,0
	C683.3,528.3,684.8,527.9,686.2,527.5L686.2,527.5L686.2,527.5z M567.2,449.1c-0.1-1.7-0.1-3.5,0.1-5.6l0.1-0.4
	c0.3-1.5,0.5-3.1,1-4.6c0.5-1.7,1.1-3.5,1.8-5.3c1.2-2.7,2.2-4.8,3.2-6.9l0.4-0.8c1.2-2.4,2.5-4.9,4-7.2c0.3-0.3,0.6-0.6,0.9-1
	c0.7-0.4,1.4-0.8,2.2-1.2c1.8-0.7,3.7-1.2,5.4-1.7c0.6-0.2,1.2-0.3,1.7-0.5c1.6-0.5,3.2-1.2,4.7-1.9l0.1,0c1.5-0.7,2.9-1.6,4.1-2.6
	c1.7-1.2,3.3-2.6,4.9-3.9l0.2-0.1c3.1-2.6,7.1-6.1,10.6-10.2c2.2-2.6,3.8-4.7,5.2-6.8c1.2-1.8,2.4-3.6,3.5-5.4l0.6-0.9
	c0.6-1,1.2-2,1.8-2.9c2-3.2,4-6.5,6.3-9.6c1.4-1.7,2.8-3.1,4.4-4.4c1.5-1.1,3.1-2,4.8-2.8c1.9-0.8,3.8-1.4,5.6-2
	c2.1-0.7,4.3-1,6.2-1.3l0.5-0.1c2.4-0.3,4.9-0.5,7.3-0.5c0.8,0,1.5,0,2.1,0.1c2.5,0.4,4.9,1,7,1.8l0.3,0.2c0.3,0.3,0.5,0.6,0.8,0.8
	l0.4,0.5c1.6,2.2,3.3,4.4,5.3,6.4c3.5,3.3,8,5.8,13.6,7.6c2.3,0.7,4.6,1.4,6.9,2.1l1.6,0.5c2.1,0.6,4.2,1.2,6.2,2
	c1.1,0.5,2.1,1.1,3.2,1.8c3.2,2.7,5.8,5.9,8.3,8.9c1.2,1.7,2.2,3.2,2.9,4.8c0.5,1.3,0.8,2.6,1.1,3.9c0,0.7,0,1.3,0,2
	c-0.3,1.5-0.7,3-1.3,4.5c-0.8,1.8-1.7,3.7-2.6,5.4c-1.5,3.2-3.1,6.4-4.3,9.8c-1.8,4.9-3.3,10-4.5,15.5c-1.2,5.3-1.6,11-1.4,17.1
	c0.1,1.8,0.4,3.6,0.6,5c0.3,1.5,0.5,2.8,0.9,4.1c0.2,0.8,0.5,1.6,0.7,2.4c0.5,1.6,1,3.3,1.5,5c1.1,3.8,1.8,7,2.4,10
	c0.5,2.7,0.9,5.4,1.3,8.1c0.2,2.1,0.4,4.4,0.3,6.9c-0.2,0.8-0.4,1.6-0.7,2.4c-0.7,1.4-1.4,2.7-2.2,3.9c-0.8,0.9-1.6,1.6-2.5,2.4
	c-1.7,1.2-3.5,2.2-5.6,3.2c-1.4,0.6-2.9,1.1-4.7,1.8c-1.9,0.7-3.5,1.1-5.1,1.4c-1.1,0.1-2.2,0.3-3.3,0.5c-0.6,0.1-1.2,0.2-1.8,0.4
	c0.1-0.2,0.2-0.5,0.3-0.7c0.4-1.1,0.7-2.2,1-3.1c0.8-3.1,1.2-6.2,1.5-9.9c0.2-2.5,0.3-4.8,0.3-7c0-1.5-0.3-3.1-0.5-4.6l-0.1-1
	c-0.2-1.4-0.5-2.6-0.9-3.8c-1.3-3.6-2.3-6.4-3.5-9c-0.5-1.1-1.1-2.2-1.8-3.4c-0.7-1.2-1.6-2.2-2.4-3.3l-0.3-0.3
	c-0.7-0.9-1.3-1.8-1.9-2.8l-0.8-1.1l-0.4-0.6c-0.9-1.3-1.8-2.6-2.5-4l-0.2-0.6c-0.7-2-1.5-4-2.7-5.8c-0.6-0.8-1.2-1.5-2-2
	c0.4-0.8,0.8-1.5,1.2-2.3c0.5-1,1.1-2.1,1.6-3.2c0.7-1.6,1.4-3.1,2-4.6l0.1-0.2c0.6-1.3,1.1-2.4,1.5-3.5c1.8-3.6,3.2-7,4.2-10.4
	c0.4-1.2,0.7-2.5,0.9-3.7c0.3-1.7,0.5-3.2,0.3-4.7c-0.1-1.3-0.3-2.4-0.5-3.3c-0.6-2.6-1.7-5-2.7-7.3c-1-2.2-2.5-4.3-4.3-6
	c-0.3-0.3-0.6-0.5-0.9-0.8l-0.1-0.1l-0.3-0.2c-0.8-0.6-1.5-1.2-2.3-1.6c-0.5-0.3-1.7-0.8-2.4-1c-0.6-0.2-1.3-0.4-2-0.5l-0.5-0.1
	c-1.6-0.4-3.4-0.6-5.1-0.6c-0.8,0-1.7,0.1-2.5,0.1c-2.1,0.2-4.4,0.5-6.7,1.3c-1.9,0.6-3.8,1.5-5.7,2.3l-0.8,0.4
	c-2,0.9-3.7,2.2-5.4,3.6l-0.3,0.2c-0.6,0.5-1.1,0.9-1.7,1.4c-0.6,0.6-1.2,1.2-1.7,1.8c-1.2,1.5-2.7,3.3-3.9,5.2
	c-2.2,3.6-3.9,6.4-5.3,9.1c-0.9,1.2-1.6,2.3-2.3,3.4l-0.1,0.2c-1.2,1.9-2.4,3.9-3.4,5.9c-1.2,2.6-2.5,5.5-3.8,9.1
	c-0.3-0.1-0.6-0.2-0.9-0.3c-0.3-0.2-0.6-0.3-0.9-0.5c-0.5-0.2-0.9-0.5-1.4-0.7c-1.1-0.6-2.3-1-3.3-1.5c-2.1-0.9-4.3-1.1-6.4-1.3
	c-0.6-0.1-1.3-0.1-1.9-0.1c-0.7,0-1.5,0-2.2,0.1c-2.2,0.2-3.9,0.5-5.8,0.9c-3,0.8-5.8,2-8.8,3.2c-2.3,1-4.5,2.2-6.9,3.8
	c-2.8,1.8-5.2,3.9-7.2,6c-0.9,1-1.8,2-2.9,3.3C567.5,450.5,567.4,449.8,567.2,449.1L567.2,449.1L567.2,449.1z M502.8,607.1
	c-0.5-0.1-1-0.2-1.5-0.4c-1.4-0.7-2.7-1.7-3.8-2.5c-1.6-1.2-3.2-2.6-4.7-4.2c-0.4-0.7-0.9-1.4-1.2-2.1c-0.9-2.5-1.4-5-1.7-7.1
	c-0.2-2-0.2-3.7-0.3-5.3c0-1,0-2,0-3.1c0-0.8,0-1.5,0-2.3c0-3.7-0.4-7.7-1.2-12.8c-0.3-1.7-0.8-3.4-1.2-5c-0.8-2.7-1.9-5.4-3.2-8.4
	c-2.4-5.3-7.1-9.1-12.2-9.9c-2.2-0.3-4.4-0.4-6.4-0.4c-1.4,0-2.8,0-4.2-0.1c-0.4-0.1-0.7-0.2-1.1-0.3l-0.1-0.1l0,0
	c-0.8-2.3-1.2-4.7-1.5-7.4l-0.1-0.6c-0.2-1.7-0.4-3.4-0.7-5.1c-0.3-2-0.7-3.9-1-5.5c-0.4-1.8-0.9-3.6-1.4-5.3
	c-0.6-1.9-1.1-3.8-1.5-5.7c-0.1-1.6-0.1-3.3,0.1-5.2c0.5-3.4,1.4-6.4,2.6-9.4c1-2.2,2-4.5,3.1-6.6c0.9-1.9,1.9-4,2.8-6
	c1.9-4.3,3.8-8.8,4.7-13.5c1.1-6.1,2.3-13.1,1.4-20.1c-0.3-2.4-0.8-5.6-1.9-8.8c-0.5-1.6-1.2-3.1-2.1-4.7c-0.9-1.6-2.1-3-3.2-4.4
	l-0.3-0.3c-0.9-1.1-2-2.2-3-3.3c-1-1-1.9-2.1-2.9-3.1c-1.1-1.6-2.1-3.2-2.9-4.9c-1.2-3.2-2.1-6.7-2.7-10.5c-0.3-2.4-0.3-4.6-0.1-6.8
	c0.3-2,0.8-4,1.3-6l0.2-0.9c0.7-3,1.6-5.8,2.6-8.4c1.1-2.3,2.4-4.5,4.1-6.8c3.4-4.2,7-8.7,11.5-12.4c1.5-1.1,3.1-2,4.8-2.8
	c2.7-1.1,5.4-1.9,8.3-2.5c1.1-0.2,2.3-0.4,3.4-0.6l1-0.1c1.8-0.2,3.6-0.4,5.3-0.7l0.7-0.1c1-0.2,2.1-0.3,3.1-0.5
	c0.4-0.1,0.7-0.1,1.1-0.2c0.1,2.3,0.1,4.6,0,7c-0.6,3.3-1.4,6.4-2.4,9.2c-1,2.1-2.2,4.3-3.8,6.5c-1.2,1.4-2.6,2.8-4.5,4.2
	c-1.7,1.4-3.2,2.6-4.5,4.3c-0.7,0.9-1.4,1.8-1.9,2.8c-0.5,0.9-0.9,2-1.2,2.9c-0.2,0.7-0.3,1.8-0.4,2.6l0,0.4
	c-0.1,0.6-0.1,1.3-0.1,1.8c0,1.2,0,2.5,0.1,4.1c0.3,3.8,0.6,8.3,2,12.3c0.6,1.8,1.4,3.5,2.4,5c1.2,1.9,2.8,3.6,4.9,5.1
	c2,1.4,4.2,2.2,6.5,3c0.2,0.1,0.4,0.2,0.6,0.4c0.5,0.5,1.1,1,1.6,1.4c-0.6,2.9-0.5,6.2,0.3,9.6c0.2,1.1,0.6,2.1,1,3.1
	c0.2,0.4,0.3,0.9,0.5,1.3c0.5,1.5,1.1,3.3,1.5,5.1c0.1,1.3,0.1,2.6-0.1,4.1c-0.7,3.9-1.8,7.8-2.8,11.6c-0.3,1-0.6,2-0.9,3.1
	c-0.6,2.3-1.2,4.7-1.8,7c-0.6,2.7-1.3,5.4-2.1,8.1c-0.3,1.1-0.6,2.2-1,3.3c-0.4,1.3-0.8,2.6-1.1,3.9c-0.6,2.3-1.3,4.8-2,7.8
	c-0.6,2.4-1.2,5-1.6,7.7c-0.4,3.2-0.7,6.3-0.6,9.4c0,1.8,0.1,3.7,0.5,5.5c0.3,1.5,0.9,2.9,1.5,4.3l0.2,0.4c0.6,1.4,1.4,2.8,2.6,4.4
	c1.1,1.5,2.2,2.7,3.3,3.8c0.3,0.3,0.6,0.5,0.9,0.7l0.5,0.4c0.5,0.4,0.9,0.8,1.4,1.1c0.4,0.4,0.9,0.7,1.3,1.1
	c3.1,2.6,6.1,5.5,8.8,8.7c2,2.7,3.5,5.3,4.7,7.8c0.8,2.3,1.4,4.2,1.7,6.1c0.2,1,0.4,2.1,0.6,3.1c0.3,1.5,0.6,3,0.9,4.4
	c0.6,2.4,1.4,5.6,2.8,8.6c0.6,1.2,1.2,2.5,1.8,3.7c0.3,0.6,0.6,1.1,1,1.7c-0.1,0.1-0.2,0.1-0.3,0.2c-1.5,1-2.5,2.5-3.4,3.8
	c-0.6,0.9-1.1,1.8-1.6,2.8c-0.2,0.4-0.4,0.8-0.6,1.2c-0.4,0.7-0.8,1.3-1.2,1.9c-0.3,0.6-0.7,1.1-1,1.7c-0.3,0.5-0.5,1-0.8,1.4
	c-0.6,1.1-1.2,2.2-1.9,3.2c-0.5,0.6-1.1,1.2-1.7,1.7c-0.7,0.5-1.4,0.9-2.1,1.2c-0.4,0.1-0.9,0.3-1.3,0.4c-0.1,0-0.3,0-0.4,0
	C503.2,607.1,503,607.1,502.8,607.1L502.8,607.1L502.8,607.1z M627.1,490.7c-0.3-0.2-0.5-0.3-0.8-0.5c-0.4-0.4-0.8-0.8-1.2-1.1
	c-1-1.5-1.8-3.1-2.4-4.4c-0.5-1.4-0.9-2.9-1.2-4.7c-0.2-2.1-0.2-4.2,0-6.2c0.1-0.7,0.3-1.4,0.5-2c0.1-0.4,0.3-0.9,0.5-1.4
	c0.4-0.9,0.8-1.7,1.2-2.6c0.3-0.7,0.6-1.4,1-2.1c0.8-1.8,1.6-3.8,2.5-6.3c0.4-1,0.7-2.1,1.1-3.1c0.7-2,1.4-4.1,2.2-6.2
	c0.9-2,1.8-3.9,2.7-5.7c0.7-1.4,1.5-2.7,2.4-3.9c0.5-0.8,1-1.6,1.5-2.5l0.5-0.9c1-1.8,2.1-3.6,3.3-5.3c1.1-1.5,2.3-3.3,3.6-5
	c0.6-0.8,1.3-1.5,1.9-2.3l0.4-0.4c0.7-0.8,1.5-1.8,2.5-2.6c0.6-0.4,1.3-0.7,2.1-1.1c1.9-0.7,3.9-1.2,6.6-1.6c0.3,0,0.6-0.1,0.9-0.1
	l0.3,0.3c0.1,0.2,0.2,0.4,0.4,0.6c0.2,0.6,0.4,1.2,0.5,1.7c0.1,1.4,0.1,2.9-0.1,4.6c-0.4,2.5-0.9,5-1.4,7.4
	c-0.3,1.3-0.5,2.5-0.8,3.8c-0.2,0.8-0.3,1.5-0.5,2.2c-2.2,2.7-4.4,5.4-6.2,8.3c-1.5,2.4-2.5,5.1-3.5,7.9c-0.3,0.9-0.6,1.7-0.9,2.6
	c-0.4,1.2-0.9,2.5-1.3,3.7l-0.1,0.4c-0.4,1-0.8,1.9-1.1,2.9c-0.5,1.5-0.9,3-1.3,4.5l-0.3,1.2l-0.2,0.7c-0.4,1.5-0.8,3-1.3,4.5
	c-0.5,1.5-1,3.1-1.7,4.8c-0.4,0.9-0.9,1.8-1.4,2.6c-0.4,0.6-0.8,1.2-1.2,1.7l-0.4,0.5c-0.9,1.2-1.9,2.3-3,3.4
	c-0.7,0.4-1.4,0.8-2.3,1.3c-0.6,0.2-1.2,0.4-2,0.5c-0.6,0.1-1.3,0.1-1.9,0.1L627.1,490.7L627.1,490.7L627.1,490.7z M593.2,564.4
	c-2.4-0.4-4.7-1-6.9-1.9c-2.4-1.1-4.4-2.2-6.2-3.5c-1-0.8-1.9-1.8-2.8-2.9c-1.7-2.3-3.2-4.8-4.6-7.7c-0.4-0.9-0.7-2-1-3
	c-0.3-1.4-0.6-2.8-0.9-4.4c-0.4-4.3-0.6-8.8-0.6-13.6c0-2.9,0.2-5.9,0.3-8.7c0.1-1.8,0.2-3.6,0.3-5.4c0.1-2.3,0-4.6-0.2-6.9
	c-0.2-2.5-0.5-5.6-1.2-8.3c-0.5-2-1.2-3.8-2-5.7l-0.3-0.7c-0.8-2-1.8-4.7-2.4-7.6c-0.1-1-0.1-2,0-3.1c0.3-1.5,0.7-2.9,1.3-4.6
	c0.4-0.9,0.9-2,1.6-3c0.6-0.9,1.2-1.9,2-3.1c1.8-2.1,3.7-4.2,5.5-6.2l1.3-1.4c2.6-2.8,4.8-5.1,7.2-7.2c2.2-1.5,4.1-2.7,5.9-3.6
	c2.1-1.1,4.3-2,6.4-2.9c1.4-0.5,2.6-1,3.7-1.3c1.1-0.3,2.2-0.5,3-0.6c0.7-0.1,1.4-0.1,2-0.1c0.6,0,1.1,0,1.7,0.1
	c1.1,0.2,2.1,0.5,3.1,0.7c0.7,0.2,1.4,0.4,2.1,0.5l0.9,0.2l-0.4,1.4c-0.6,2-1.1,4.1-1.9,6.1c-0.7,1.4-1.4,2.7-2.2,4
	c-0.4,0.6-0.7,1.3-1.1,1.9c-1.3,2.3-2.3,5-3.2,8.5c-1.4,5.4-2,10.9-1.5,15.8c0.2,2.8,0.6,5.8,1.5,8.6c0.6,1.7,1.3,3.4,1.9,4.6
	c0.6,1.3,1.8,2.7,2.6,3.7c1.2,1.3,2.5,2.4,3.7,3.2c2.4,1.7,5,3,8.2,4.1c1.3,0.5,2.8,0.7,4.8,0.8c0.3,0,0.5,0,0.8,0
	c0.9,0,1.9-0.1,3.1-0.2c1.9-0.2,3.6-0.5,5.1-0.8c2.5-0.5,4.9-1.4,7.1-2.7c3.2-1.9,5.9-4.7,8.5-9c1.6-2.6,2.8-5.5,3.8-8.1
	c0.9-2.2,1.7-4.5,2.3-6.6c0.6-1.9,1.1-4,1.7-6.5c0.4-1.5,0.8-3,1.3-4.5c0.2-0.8,0.5-1.6,0.7-2.4c0.4-1.4,0.8-2.9,1.2-4.4
	c0.4-0.8,0.9-1.6,1.3-2.4c0,0.1,0.1,0.1,0.1,0.2c0.2,0.5,0.5,0.9,0.7,1.4c0.2,0.4,0.5,0.9,0.8,1.3c0.3,0.5,0.6,1,0.9,1.5
	c0.3,0.5,0.6,1.1,0.9,1.6c0.6,1.1,1.3,2.3,1.9,3.4c1.1,1.9,2,3.5,2.7,5c0.6,1.6,1.2,3.2,1.8,5c0.1,0.4,0.3,0.8,0.4,1.2
	c0.2,0.6,0.4,1.3,0.6,1.9c0.2,0.6,0.3,1.3,0.5,2.1c0.4,4,0,8-0.3,11.4c-0.3,1.6-0.5,2.9-0.9,4c-0.5,1.8-1.2,3.5-1.7,4.8
	c-0.6,1.3-1.2,2.6-1.9,3.9c-0.7,1.4-1.7,2.7-2.6,4l-0.3,0.4c-2.1,2.7-5,6.1-8.4,9c-0.8,0.5-1.6,1-2.4,1.5c-4.4,1.7-9.2,2.5-13.8,3.4
	c-2.2,0.4-4.2,0.9-6.1,1.6c-2.2,0.8-4.9,1.8-7.3,3.2c-1.6,0.8-3,2-4.4,3.1c-1.1,0.9-2,1.7-2.7,2.4c-3,3.2-5.8,6.4-8.7,9.8
	c-1.6,1.8-3.1,3.7-4.7,5.5l-0.6,0.7c-1.7,2.1-3.5,4.2-5.6,6c-0.6,0.4-1.1,0.7-1.7,1c-0.5,0.2-1,0.3-1.6,0.4c-0.4,0-0.9,0-1.3,0
	C595.4,564.6,594.4,564.6,593.2,564.4L593.2,564.4L593.2,564.4z M622.7,469.8c0,0.1-0.1,0.2-0.1,0.3
	C622.7,470,622.7,469.9,622.7,469.8L622.7,469.8L622.7,469.8z M501,753.9c-3.9-0.7-8-1.9-12.5-3.7c-5.1-2.3-9.5-4.7-13.3-7.5
	c-4.4-3.6-8.1-8-11.5-12.1c-2.5-3.1-4.9-6.1-7.2-9l-2-2.7l-2.1-2.8c-2.8-3.7-5.2-7.9-7.2-12.4c-1.9-4.9-3.3-10.1-4.2-15.6
	c-0.7-6.1-0.7-12.3-0.7-17.5l0-1.5c0-2.1,0-4.2,0.2-6.3c0.2-2.1,0.4-4.2,0.6-6.2c0.2-1.2,0.4-2.4,0.7-3.7c0.2-1.2,0.4-2.4,0.7-3.6
	c0.5-2.7,0.9-5.5,1.3-8.5c0.4-3,0.6-6.2,0.7-9.7c0-2.4,0.1-5-0.1-7.5c-0.1-1.5-0.2-3.1-0.3-4.6c-0.1-1-0.2-1.9-0.3-2.9
	c-0.1-0.5-0.1-0.9-0.2-1.4c-0.4-2.9-0.9-5.9-1.8-9.4c-1.4-5.5-3.4-10.7-5.4-15.5c-2.5-6.1-5.9-14.1-10-21.7c-1.6-3-3.4-6.1-5.5-9.2
	l-1.1-1.7c-2.5-3.8-5.1-7.7-7.1-11.9c-0.9-2.4-1.6-4.6-2-6.8c-0.4-5,0.1-10.1,0.6-15l0.2-1.4l0-0.2c0.2-1.7,0.5-3.6,0.9-5.3
	c0.9-4.2,1.9-8.7,3.6-13.1c1.2-2.6,2.6-5,4.1-7.2c1.7-2.1,3.7-4,5.8-5.8c2.2-1.6,4.4-2.9,6.8-4c1.8-0.7,3.4-1.2,5.1-1.5
	c0.7-0.1,1.4-0.1,2-0.1c0.4,0,0.8,0,1.2,0c2.1,0.4,4.1,1.1,5.7,1.7l-0.7,1.4c-0.9,2-1.8,4-2.6,6.1c-1.6,3.9-2.5,8.3-3,13.8
	c-0.3,3.6,0.2,7.5,1.5,11.6c0.5,1.5,1,3.1,1.5,4.6c1,3.2,1.6,6.4,2.1,9.4c0.1,1.1,0.3,2.1,0.4,3.2l0.2,1.4c0.4,3,0.8,6.1,1.9,9
	c0.6,1.6,1.2,2.9,2.4,4.2c0.9,1,2,1.8,3,2.6c0.4,0.3,0.9,0.5,1.4,0.7c0.7,0.3,1.5,0.6,2.2,0.9c1,0.3,2.1,0.4,3.1,0.5
	c0.3,0,0.6,0.1,0.9,0.1c1.5,0.2,3,0.2,4.4,0.2c1.2,0,2.3,0,3.5,0.1c0.3,0.1,0.6,0.1,0.9,0.2c0.1,0.1,0.3,0.2,0.4,0.2
	c0.3,0.3,0.6,0.6,0.9,0.9c0.4,0.6,0.8,1.3,1.1,2.1c0.9,2.4,1.7,4.9,2.3,7.2c0.4,1.6,0.7,3.3,0.9,4.9c0,0.5,0.1,1,0.1,1.6
	c0.1,1.9,0.2,3.7,0.2,5.5l0,2.1c0,2,0,4,0,6c0,2.5,0.4,5.1,0.8,7.5c-0.6,1.4-1.3,2.8-1.9,4.3c-1.4,3.2-2.9,6.5-4.3,9.8
	c-2.2,5.4-2.7,12.2-1.4,20.1c0.3,1.7,0.6,3.6,1.2,5.4c1,3.6,2.6,6.7,4.7,9.2c2.3,2.7,5.4,5,9.6,7.2c3.1,1.6,6.4,2.8,9.6,3.9
	c1.3,0.5,2.6,0.9,3.9,1.4c0.8,0.4,1.6,0.7,2.4,1.1c2.8,1.3,5.1,2.7,7.2,4.2c1.3,1,2.4,2,3.4,3c1.2,1.2,2.2,2.4,3.4,3.9
	c2,2.6,3.7,4.8,5.4,7c1.4,1.7,2.7,3.1,4.1,4.3c1.7,1.4,3.5,2.6,5.5,3.8c2,1.2,4.2,2,6.1,2.8c1.9,0.7,3.9,1,5.5,1.2
	c0.8,0.1,1.6,0.2,2.4,0.2c0.1,0,0.2,0,0.3,0c1,0,2-0.2,3-0.3l0.8-0.1c1.9-0.3,3.6-1,5.4-1.8l0.8-0.3c1.9-0.8,3.6-1.9,5-2.9
	c2.2-1.6,4.4-3.3,6.5-5.1c0.5-0.4,1-0.8,1.5-1.2c0.8-0.6,1.6-1.1,2.5-1.5c1.3-0.4,2.7-0.8,4.3-1.1c0.8-0.1,1.5-0.1,2.3-0.1
	c0.8,0,1.6,0,2.4,0.1c5.2,0.9,10.4,2.8,15.3,4.6l1.7,0.6c1.3,0.5,2.5,0.9,3.8,1.4c3.8,1.4,7.7,2.9,11.6,4c1,0.3,2.1,0.5,3.3,0.7
	c2.6,0.4,5.2,0.8,7.8,0.8h0.1c1.7,0,3.6-0.2,6.1-0.8c1.8-0.4,3.6-1.2,5.4-2.5c2-1.4,3.6-3,4.9-4.9c0.7-1,1.3-2,1.7-2.9
	c0.8-1.5,1.4-3.2,2-4.7c0.4-1.1,0.8-2.3,1.2-3.4l0.3-0.8c0.8-2.4,1.6-4.6,2.4-6.7l0.1-0.2l0-0.1c0.4-0.9,0.9-2,1.6-3.1
	c0.2-0.4,0.5-0.7,0.8-1.1l0.3-0.4c0.1-0.2,0.3-0.4,0.4-0.6l0.2,0.1l0.2,0.1c2.7,1.5,5,2.7,7.1,3.8c3.1,1.5,5.9,2.6,8.4,3.2
	c1.9,0.5,3.8,0.9,5.8,1.2c1.4,0.2,3,0.4,4.6,0.4c0.4,0,0.7,0,1.1,0c2-0.1,4.1-0.6,6.3-1.3c1.7-0.6,3.1-1.3,4.3-2.1
	c0.8-0.5,1.5-1.1,2.2-1.8c0.6-0.5,1-1.2,1.5-1.8c0.1-0.2,0.3-0.4,0.4-0.6c0.6-0.8,1.2-2.3,1.4-3.1c0.3-0.9,0.6-2.3,0.6-3.6
	c0.1-1.9-0.2-4-0.8-6.1c-0.4-1.4-0.7-2.7-1.1-4.1c-1-3.8-2.1-7.8-3-11.7c-0.2-0.8-0.4-1.6-0.5-2.4c0-0.5,0-1,0-1.5l0.1-0.1
	c0.5-0.6,1.1-1.1,1.6-1.6c0.4-0.2,0.8-0.5,1.2-0.7c1.9-0.7,3.8-1.1,5.3-1.3c0.6,0.7,1.3,1.4,2.1,2c0.8,0.5,1.6,0.9,2.5,1.2l0.4,0.2
	c2.5,1,5.3,2.2,8.3,3c1.6,0.4,3.3,0.7,5,0.9l0.3,0c1,0.1,2.2,0.2,3.4,0.2c0.3,0,0.6,0,0.9,0c0.6,0,1.1,0,1.7,0
	c2.1,0,3.9,0.1,5.7,0.3c2,0.3,3.9,0.6,5.7,1c2.4,0.4,5.1,0.7,8,0.8c0.3,0,0.5,0,0.8,0c2.7,0,5.4-0.3,8.1-0.9
	c1.5-0.3,2.9-0.6,4.4-0.8c0.9-0.1,1.7-0.3,2.6-0.4c1.2-0.2,2.4-0.6,3.6-1.1c0.8-0.2,1.5-0.5,2.3-0.8c0.4-0.2,0.9-0.3,1.3-0.5
	l0.3-0.1c1.3-0.5,2.6-1,3.8-1.7c1.5-0.8,2.8-1.8,4-2.8c1-0.8,1.8-1.8,2.6-2.8c0.5-0.6,1-1.2,1.4-1.7c0.7-0.9,1.5-2,2.4-3.4
	c1.5-2.4,2.7-5.1,3.6-7.3c0.6-1.3,1.3-2.7,2.2-4.4c0.6-1.1,1.4-2.2,2.2-3.2l0.2-0.2l1-1.2c1.7-2.1,3.5-4.3,4.9-6.7
	c0.2-0.3,0.4-0.6,0.5-0.9c0.3,0.6,0.6,1.3,0.9,1.9c2.1,4.5,4.4,8.8,6.6,12.8c1.3,2.4,2.6,4.7,3.9,7l1,1.7c0.8,1.4,1.5,2.8,2.5,4.7
	c0.4,0.8,0.7,1.6,1,2.2c1,2.5,1.6,4.7,2,6.9c0.3,2.9,0.3,5.8,0,8.6c-0.4,2.4-1.1,4.7-2,7.1c-1.8,3.9-4,7.7-6.7,11.3
	c-2.4,3-5,5.8-7.6,8.6l-0.8,0.8c-3.6,3.9-7.3,8-11.5,11.4c-3.8,2.8-8,5.2-12.5,7.2c-4.4,1.7-8.8,3-13.2,3.7
	c-2.1,0.2-4.2,0.3-6.6,0.3c-4.6,0-9.2-0.4-13.7-0.8l-2.5-0.2c-3.1-0.3-6-0.4-8.9-0.4c-3.4,0-6.7,0.2-9.8,0.6
	c-4.3,0.5-8.5,1.3-12.5,2.1c-3.4,0.7-6.7,1.7-9.2,2.5c-1.8,0.6-3.6,1.4-5.8,2.4c-1.9,0.9-3.7,2-5.9,3.7c-1.3,1-2.3,2.1-3.3,3.3
	c-0.8,1-1.5,1.9-2.1,2.9c-0.5,0.8-0.9,1.9-1.3,2.8l-0.2,0.5c-0.6,1.4-1,2.9-1.2,4.8c-0.2,1.8-0.5,3.8-0.5,5.8c0,1.3,0.1,2.5,0.1,3.8
	c0.1,2.9,0.2,5.8,0.2,8.7c-0.1,0.5-0.1,1.1-0.2,1.6l-0.1,0.6c-0.4,1.9-0.9,3.8-1.7,6c-0.3,1-0.7,2.1-1,3.1c-0.4,1.4-0.8,2.8-1.3,4.2
	c-1.6,3.4-3.9,6.6-6,9.6l-0.2,0.2c-0.3,0.4-0.7,0.8-1,1.2c-1.6,0.5-3.3,0.9-5.2,1.2c-2.1,0.2-4.2,0.3-6.3,0.3
	c-2.7,0-5.5-0.2-8.3-0.5c-4.7-0.7-8.8-1.8-12.6-3.2c-4.3-2-8.3-4.5-12.2-7c-1.8-1.1-3.6-2.3-5.4-3.3c-2.8-1.7-5.4-3.2-8-4.6
	c-2.9-1.6-5.8-2.9-8.4-4l-2.1-0.8l-2.1-0.8c-2.4-0.9-5-1.7-8.2-2.5c-4.8-1.2-10.2-1.8-15.8-2c-0.4,0-0.7,0-1.1,0
	c-3.8,0-7.5,0.5-10.9,1c-3.9,0.6-7.8,1.9-12.3,3.9c-6,2.7-11.2,6.7-16,10.6c-1.4,1.2-2.8,2.3-4.2,3.5c-1.9,1.6-3.8,3.2-5.8,4.8
	c-2.2,1.6-4.2,2.9-6.2,3.9c-1.4,0.5-2.7,0.9-4.1,1.1c-0.8,0.1-1.5,0.1-2.3,0.1C502.9,754,502,753.9,501,753.9L501,753.9L501,753.9z
	 M397.6,521.6c0,0.1,0,0.2,0,0.3C397.5,521.8,397.5,521.7,397.6,521.6L397.6,521.6L397.6,521.6z M745.6,527.7c0,0.1,0,0.2,0,0.3
	c0,0,0,0,0,0.1C745.5,527.9,745.6,527.8,745.6,527.7L745.6,527.7L745.6,527.7L745.6,527.7z M597.3,580.4c3.1-0.1,6.2-0.8,9.2-2.2
	c2.7-1.3,4.9-3.1,6.6-4.7c1.5-1.3,2.8-2.9,4-4.4c0.3-0.4,0.6-0.7,0.9-1.1c2.2-2.6,4.7-5.6,7.3-8.5c0.6-0.7,1.2-1.4,1.8-2.1l1-1.2
	c0,0.1,0,0.2,0,0.3c0.1,0.6,0.2,1.1,0.3,1.7c0.7,2.9,2.1,5.9,4.4,9.3c1.7,2.5,3.6,4.9,5.2,7c1.4,1.8,3.2,3.3,4.8,4.8l0.7,0.6
	c2,1.8,4.3,3.6,7,5.6c1,0.8,2.2,1.5,3.6,2.4c1.5,0.9,3.2,1.6,4.6,2c1.8,0.7,3.8,0.9,5.7,1.2l0.6,0.1c1.1,0.1,2.2,0.2,3.3,0.2
	c4.8,0,9.7-1.3,13.4-2.4c1.4-0.4,2.8-0.9,4.3-1.4c1.1-0.4,2.3-0.8,3.4-1.1c2.4-0.8,4.9-1.6,7.4-2.6c2.8-1.1,5.8-1.8,8.6-2.6l1.5-0.4
	c0.9-0.2,1.9-0.5,2.8-0.7c0.8-0.2,1.6-0.4,2.4-0.6c1.6-0.4,3.2-0.7,4.8-0.9l0.4-0.1c2.3-0.3,4.8-0.7,7.3-1.1c2-0.4,4.1-0.9,6-1.5
	c0.6-0.2,1.2-0.3,1.8-0.5c3.4-0.9,6.4-2.3,9.1-4.1c1.3-0.9,2.6-1.9,3.9-3.1c0,0,0,0.1,0,0.1c0,0.2,0.1,0.4,0.2,0.6
	c0.2,0.7,0.4,1.5,0.6,2.2c0.6,2.1,1.3,4.3,1.7,6.5c0.1,1.3,0.1,2.5,0,3.9c-0.2,1.2-0.5,2.3-0.9,3.3c-0.2,0.4-0.5,0.9-0.8,1.3
	c-0.5,0.6-1.1,1.1-1.7,1.6c-1.3,0.9-2.9,1.8-4.7,2.6c-2.3,0.9-4.6,1.7-6.9,2.4c-2.4,0.8-4.9,1.7-7.3,2.6l-2.4,0.9
	c-4.2,1.6-8.6,3.3-12.9,4.8c-2.6,0.9-4.9,1.7-7.3,2.2c-2.6,0.5-5.2,1-7.8,1.4l-0.7,0.1c-1.1,0.2-2.2,0.4-3.3,0.6l-0.2,0
	c-0.7,0.1-1.5,0.3-2.2,0.5c-2.1,0.5-3.9,1.2-5.6,2c-0.8,0.4-1.4,0.9-2.1,1.3c-0.9,0.7-1.8,1.4-2.7,2.2c-1.3,1.1-2.5,2.6-3.5,4.3
	c-0.8,1.3-1.3,2.9-1.6,4.6c-0.3,1.8-0.5,3.7-0.3,5.7c0.4,3.5,1.1,7.1,2.2,11.1c0.4,1.6,0.9,3.1,1.3,4.6l0.3,1.1
	c0.4,1.4,0.9,2.8,1.2,4.2c-0.3,0.2-0.6,0.4-0.8,0.5c-0.7,0.2-1.3,0.4-1.9,0.5c-0.3,0-0.6,0-1,0c-0.6,0-1.3,0-2-0.1
	c-1.6-0.3-3.2-0.6-4.6-1c-1.3-0.4-2.6-0.8-4.3-1.4c-4.7-2.2-9.1-4.7-12.4-6.6c-2-1.1-3.9-2.4-5.8-3.6l-0.3-0.2
	c-2.5-1.6-4.7-3-7.3-3.8c-0.9-0.3-1.9-0.4-2.9-0.4c-1.2,0-2.5,0.2-3.6,0.4c-0.8,0.1-1.8,0.6-2.5,1l-0.5,0.2l-0.3,0.1l-0.3,0.2
	c-0.2,0.1-0.4,0.1-0.7,0.2c0,0-0.1,0-0.1,0c-1.2-0.3-2.4-0.7-3.5-1.1c-0.5-0.2-1-0.3-1.5-0.5l-1.2-0.4c-1.3-0.4-2.6-0.8-3.8-1.3
	c-0.8-0.4-1.5-0.8-2.2-1.2c-0.3-0.3-0.7-0.6-1-1c-0.3-0.4-0.5-0.8-0.8-1.2c-0.7-0.9-1.3-1.9-2.1-2.8c-1-1.2-2.1-2.2-3.7-3.3
	c-0.5-0.4-1.4-0.7-2.1-0.9l-0.3-0.1c-0.5-0.2-1.1-0.4-1.7-0.6c-1.9-0.6-4-0.8-5.8-0.9c-1.3-0.1-2.6-0.2-3.9-0.2c-0.3,0-0.6,0-0.9,0
	c-3.9,0-7.8,1.2-11.1,2.2c-1.1,0.3-2.1,0.7-3.3,1.2c-2.1,0.8-4.4,1.7-6.8,2.1c-0.4,0-0.8,0-1.2,0c-0.4,0-0.7,0-1.1,0
	c-0.4-0.1-0.8-0.2-1.2-0.3c-0.4-0.2-0.9-0.5-1.3-0.7c-0.6-0.6-1.3-1.2-1.9-2c-1.2-1.7-2.3-3.6-3.4-6c-1.1-2.7-1.9-5.2-2.6-7.5
	c-0.4-1.4-0.8-2.9-1.2-4.7c0.5-0.4,1.1-0.9,1.7-1.5c0.6-0.6,1.1-1.3,1.6-2l0.4-0.5c0.4-0.5,0.8-1.1,1.1-1.6c0.6-0.9,1.1-1.7,1.7-2.6
	c0.6-0.9,1.1-1.8,1.7-2.7c2.4-2.8,5.4-5.6,9-8.7c1.3-0.9,2.8-1.7,4.9-2.6c1-0.4,1.9-0.8,2.9-1.2c0.4-0.1,0.7-0.3,1.1-0.5
	c1.8,0.6,3.7,1.1,5.7,1.5c2.9,0.5,5.3,0.8,7.5,0.8C596.8,580.4,597.1,580.4,597.3,580.4L597.3,580.4L597.3,580.4z M505.3,620.9
	c1.1-0.1,2.3-0.3,3.5-0.6c0.9-0.2,1.9-0.7,2.8-1.1l0.4-0.2c3.1-1.4,5.9-3.5,7.9-6c1-1.3,1.8-2.4,2.5-3.7c0.3-0.6,0.6-1.1,0.9-1.7
	l0.1-0.2c0.5-0.9,0.9-1.9,1.4-2.8c1.4-2.5,2.5-5.1,3.4-7.4l0.4,0.4c1.5,1.5,3.2,2.9,4.8,4c1.3,0.9,2.9,1.5,4.4,2l0.3,0.1
	c2.5,0.9,5.3,1.2,7.7,1.5c0.4,0,0.7,0,1.1,0c0.2,0,0.4,0,0.6,0c1.3,5.6,3,11.5,5.8,17.1c1,1.9,2.3,3.9,4.2,6.1
	c1.6,1.9,3.9,3.5,6.6,4.6c1.8,0.7,3.8,1.1,5.9,1.1c2.8,0,5.9-0.6,9.2-1.9c3.2-1.2,6.7-2.4,10.3-3c0.6-0.1,1.3-0.1,2-0.1
	c1.7,0,3.4,0.2,4.7,0.3c1,0.2,2.3,0.4,3.5,0.8c0.2,0.1,0.4,0.2,0.6,0.3c0.3,0.3,0.5,0.5,0.8,0.8c0.5,0.7,0.9,1.4,1.4,2.1
	c0.7,1.1,1.6,2.2,2.6,3.4c1,1.1,2.2,1.9,3.5,2.8c1.6,1.1,3.5,1.8,5.4,2.5l0.3,0.1c0.9,0.3,1.7,0.6,2.6,0.9c0.8,0.3,1.6,0.6,2.3,0.9
	c1,0.4,2,0.8,3,1.1c1.8,0.6,3.5,0.9,5.1,0.9c2.4,0,4.6-1,6.6-1.9l0.3-0.2c1.5,0.7,2.8,1.6,4.1,2.5l0.2,0.2c-0.1,0.1-0.1,0.1-0.2,0.2
	c-0.5,0.6-1.1,1.2-1.5,1.9c-1.2,1.7-2.1,3.6-2.7,5c-1.8,4.3-3.4,8.1-4.8,11.6c-0.7,1.6-1.5,3-2.4,4.3c-0.4,0.4-0.8,0.8-1.2,1.2
	c-0.2,0.2-0.5,0.3-0.8,0.5c-0.6,0.2-1.2,0.3-1.8,0.5c-0.6,0-1.3,0.1-1.9,0.1c-0.9,0-1.8,0-2.8-0.1c-2-0.3-3.6-0.6-5.1-1
	c-2-0.6-4.1-1.3-6-2l-0.4-0.1c-1.4-0.5-2.7-1-4.1-1.5c-2.7-1-5.3-2-8-2.9c-5.7-2-12.3-4.3-18.9-4.3c-0.7,0-1.5,0-2.2,0.1
	c-3.3,0.3-6.3,0.9-8.8,1.9c-1.8,0.7-3.3,1.5-4.8,2.5c-1.1,0.7-2.1,1.6-3.1,2.4l-0.3,0.3c-1.3,1.1-2.7,2.2-4.1,3.3
	c-1.9,1.3-3.6,2.4-5.3,3.2c-1,0.4-2,0.6-2.9,0.8c-0.3,0-0.7,0-1,0c-0.5,0-1,0-1.5-0.1c-1.4-0.3-2.7-0.7-4.2-1.3
	c-2-0.9-3.7-1.9-5.3-3.1c-1.7-1.5-3.1-3.2-4.5-5l-0.4-0.5c-1.6-2.2-3.3-4.5-5.1-6.7c-1.6-2-3.6-3.7-5.3-5.2
	c-2.9-2.4-5.5-4.2-8.1-5.6c-3.8-2-7.8-3.5-11.7-5c-1.4-0.5-2.7-1-4.1-1.6c-2.6-1.2-4.9-2.5-6.9-3.9c-0.9-0.8-1.6-1.5-2.4-2.3
	c-0.5-0.7-0.9-1.5-1.3-2.3c-0.9-2.3-1.4-4.7-2-7.5c-0.4-3.7-0.5-6.6-0.2-9.3c0.5-2.7,1.4-5.1,2.1-7c0.1,0.1,0.2,0.2,0.3,0.3
	c1.1,1.3,2.5,2.6,4.4,4.1c0.9,0.8,1.9,1.5,2.8,2.3c1.4,1.1,2.9,2.3,4.5,3.3c1.3,0.8,2.9,1.4,4.9,1.9c0.8,0.2,1.6,0.3,2.4,0.4
	c0.3,0,0.6,0.1,0.9,0.1c0.3,0,0.6,0,0.9,0C504.3,621,504.8,620.9,505.3,620.9L505.3,620.9L505.3,620.9z M528,597.5
	C528,597.5,528,597.5,528,597.5C528,597.5,528,597.5,528,597.5L528,597.5L528,597.5z M972.4,616.2c4.7-0.8,9.2-2.6,13.6-4.4l0.5-0.2
	c2.5-1,4.9-2.1,7.3-3.2c0.9-0.4,1.8-0.8,2.7-1.2l4.9-1.9c1.2-0.5,2.5-0.9,3.8-1.3c0.6-0.2,1.1-0.3,1.6-0.5c1-0.3,2-0.6,3.1-1l0.1,0
	c0.4,1.3,0.8,2.5,1,3.6c0,0.7,0,1.4,0,2.2c-0.7,3.5-1.9,6.8-3.3,10.5c-1.4,3.7-2.8,7.3-4.3,10.8c-1.8,4.2-4.2,9.7-7,15.1
	c-2.9,5.5-6.5,10.6-9.8,15.1l0.1-0.1c0,0,0,0,0,0c-1.1,1.5-2.3,3-3.5,4.4l-3.4,3.9c-0.6,0.7-1.2,1.3-1.8,1.9
	c-0.2,0.2-0.5,0.5-0.7,0.7c-2.3,2.3-4.6,4.5-6.6,6.3c-1.7,1.6-3.5,3.2-5.1,4.8c-3.4,3.3-6.2,7-8.5,10.2c-1.6,2.2-3,4.5-4.4,6.7
	c-0.4,0.6-0.8,1.3-1.2,1.9c-0.5,0.8-0.9,1.6-1.4,2.4c-0.2,0.4-0.4,0.8-0.7,1.2c-0.2,0.3-0.3,0.6-0.5,0.9c-0.4,0.7-0.8,1.5-1.2,2.2
	l-0.7,1.4c-1,2-2.1,4.1-3,6.3c-1.7,3.9-3,7.1-4.1,10c-3.9,10.1-7,20.5-10.3,32c-0.5,1.7-1,3.3-1.5,5c-0.9,3-1.9,6.2-2.7,9.3
	l-0.2,0.9c-1,3.7-2,7.6-2.8,11.5c-1.4,7.1-2,14.2-1.6,21.2c0.4,9.2,1.2,18.5,2,27.5c0.2,2.5,0.4,5,0.6,7.5c0.2,2.5,0.3,5,0.4,7.1
	c0,0.7,0.1,1.4,0.1,2.2c0.1,1.8,0.2,3.7,0.1,5.6l-0.1,5.1l-0.1,5c0,2-0.2,4-0.4,5.9c-0.1,1-0.2,1.9-0.3,2.9
	c-0.1,1.7-0.3,3.4-0.5,5.2c-0.8,5.4-2,10-3.6,14.2c-1.4,3-2.9,5.7-4.7,8.2c-3,3.6-6.6,7.1-11.1,10.7c-6.7,5-13.8,9.2-21.1,12.4
	c-8.3,3.4-17.3,5.7-27.4,7.2c-5.8,0.7-11.1,1.1-16.2,1.1l-2.8,0c-1.6,0-3.2,0-4.9,0l-0.7,0l-4.8,0l-4.6,0h-0.2
	c-1.9,0-3.9,0.1-5.7,0.1c-1,0-2.1,0.1-3.1,0.1c-5.3,0.1-10.6,0.6-15.1,1c-1.8,0.2-3.6,0.3-5.4,0.5c-3.9,0.3-7.9,0.7-11.9,1.1
	c-0.9,0.1-1.9,0.2-2.8,0.3c-2.5,0.3-5.1,0.5-7.6,0.9c-8.8,1.2-16.6,3.1-24,5.7c-9.2,3.3-18,7.6-26.1,11.8c-9.3,4.8-19.1,10-28.4,16
	l-4,2.6c-2.4,1.5-4.8,3.1-7.1,4.6l-0.6,0.4c-6.5,4.2-13.2,8.4-20.4,11.7c-5.9,2.4-12.1,4.1-18.5,5c-3.5,0.4-7.1,0.6-10.7,0.6
	c-3.8,0-7.7-0.2-11.5-0.7c-6.8-1-12.9-2.6-18.7-4.9c-4.6-2.1-9.1-4.7-13.3-7.8c-3.3-2.6-6.4-5.3-9.1-8c-0.5-0.5-1.1-1-1.6-1.5
	c-1.1-1.1-2.3-2.2-3.4-3.4c-0.6-0.6-1.1-1.2-1.7-1.8c-1.1-1.2-2.3-2.4-3.3-3.6c-1.4-1.7-2.7-3.3-4.1-5l-0.1-0.1
	c-2.8-3.8-5.7-7.7-8.2-11.8c-3.1-5.1-6-10.2-8.5-14.5c-1.6-2.8-3.3-5.7-4.9-8.5c-1.2-2.1-2.5-4.3-3.7-6.4c-1.4-2.4-2.7-4.9-4.3-7.9
	c-1.2-2.2-2.3-4.5-3.3-6.7l-0.3-0.6c-0.7-1.5-1.4-3-2.1-4.5c-1.3-2.8-2.7-5.7-4.1-8.5c-1.3-2.7-2.7-5.3-4-7.8
	c0.4,0.2,0.8,0.3,1.2,0.5c1.9,0.9,3.6,1.6,5.2,2.2c0.9,0.4,1.9,0.8,2.8,1.2c1.9,0.8,3.8,1.7,5.7,2.4c0.9,0.3,1.8,0.7,2.7,1
	c1.9,0.7,4,1.5,6,2.1c3.7,1.2,7.4,2.3,11.1,3.4c2.5,0.8,5,1.5,7.5,2.3c6.7,2.1,12.6,4.1,17.9,6.1l4.4,1.7l4.4,1.7
	c0.9,0.3,1.7,0.7,2.6,1c2.1,0.8,4.3,1.7,6.5,2.4l0.7,0.3c4.4,1.5,8.9,3,13.5,4.1c3.9,0.9,8.3,1.6,13.8,2.1c2.7,0.3,5.4,0.4,8.3,0.4
	c1.8,0,3.8-0.1,5.8-0.2c4.2-0.2,8.7-0.8,13.7-1.6c4.5-0.8,9.1-2.1,13.7-3.9c6.5-2.6,13-6.1,19.3-10.5c4.5-3.2,9.2-6.4,13.4-10
	c6.6-5.6,11.8-12.9,15.7-21.6c2.3-5.2,4.2-10.6,5.6-15.9c0.7-2.6,1.4-5.4,2-8.2c0.6-2.8,1.2-5.6,1.9-8.3c1.3-5.7,2.7-10.4,4.4-14.6
	c2-4.6,4.3-8.7,6.8-12.1c2-2.4,4.5-4.8,7.7-7.5c1.1-0.8,2.3-1.6,3.6-2.5c2.8,0.4,5.8,0.6,8.7,0.7c0.5,0,0.9,0,1.4,0
	c4,0,8-0.5,11-0.9c3.8-0.5,7.5-1.3,11.5-2.5c4-1.2,7.9-2.7,11.4-4.3c3.7-1.6,7.1-3.3,10.1-5.2c3.4-2.1,6.4-4.4,9-6.8
	c2.8-2.6,5.4-5.9,7.9-9.8c1.9-2.9,3.2-6.2,4.5-9.4l0.5-1.2c1.3-3.1,2.3-6.4,3.2-9.6l0.1-0.3c1.3-4.4,2.6-8.9,4.2-13.4l0.3-1
	c0.5-1.4,1-2.9,1.6-4.3l1.4-3.4l1-2.3c4.2-9.6,8.3-19.4,12.2-28.9l0.2-0.4c0.4-0.8,0.7-1.6,1.1-2.4c1.2-2.7,2.4-5.4,3.8-8.1
	c2.1-4.1,4.2-8.2,6.6-12.5c2-3.6,3.9-7.3,5.9-10.9l0.5-1c2.5-4.6,5-9.4,8.1-13.8c1.3-1.6,2.9-3.1,4.6-4.6c1.3-0.9,2.7-1.7,4.2-2.5
	c4-1.5,8.1-2.2,12.5-2.9l0.2,0c2.7-0.4,5.7-0.9,8.6-1.7c3.9-1.1,7.8-2.7,11.6-4.8c7.1-4,12.7-9.8,16.2-16.8l0.1-0.3c0,0,0,0,0.1,0
	c1.1,0.7,2.4,1,3.5,1c0.1,0,0.3,0,0.4,0c0.9-0.1,1.9-0.1,2.9-0.1c3.2,0,6.3,0.4,9.5,0.8l2.9,0.4c2.7,0.4,5.4,0.8,8.1,1.1
	c1.6,0.2,3.3,0.3,5.1,0.3C965.8,617.1,968.9,616.8,972.4,616.2L972.4,616.2L972.4,616.2z M758.5,611c-0.1,0-0.2,0.1-0.3,0.1
	C758.3,611,758.4,611,758.5,611L758.5,611L758.5,611z"/>
</svg>
